<svg width="32" height="32" viewBox="0 0 32 32" fill="none" xmlns="http://www.w3.org/2000/svg">
<g clip-path="url(#clip0_4726_29119)">
<path d="M32 16C32 7.16308 24.8369 0 16 0C7.16308 0 0 7.16308 0 16C0 24.8369 7.16308 32 16 32C24.8369 32 32 24.8369 32 16Z" fill="#F8604A"/>
<path d="M21.6031 25.6275H18.376V8.96039H16.7502C13.976 8.96039 12.5902 10.3475 12.5902 12.4275C12.5902 14.7475 13.5231 15.8933 15.6031 17.2804L17.2302 18.4275L12.616 25.6004H8.91016L13.3102 19.1204C10.776 17.2804 9.39016 15.6533 9.39016 12.6404C9.39016 8.93331 11.9231 6.40039 16.8031 6.40039H21.6031V25.6275Z" fill="white"/>
</g>
<defs>
<clipPath id="clip0_4726_29119">
<rect width="32" height="32" fill="white"/>
</clipPath>
</defs>
</svg>
