<svg width="20" height="20" viewBox="0 0 20 20" fill="none" xmlns="http://www.w3.org/2000/svg">
<path fill-rule="evenodd" clip-rule="evenodd" d="M7.92279 14.7558C7.77213 14.5993 7.6875 14.3872 7.6875 14.166C7.6875 13.9448 7.77213 13.7326 7.92279 13.5762L11.3727 9.99496L7.92279 6.41373C7.7764 6.2564 7.6954 6.04568 7.69723 5.82695C7.69906 5.60823 7.78358 5.399 7.93258 5.24433C8.08158 5.08967 8.28313 5.00193 8.49384 5.00003C8.70455 4.99813 8.90754 5.08221 9.05911 5.23417L13.0772 9.40518C13.2279 9.56162 13.3125 9.77376 13.3125 9.99496C13.3125 10.2162 13.2279 10.4283 13.0772 10.5847L9.05911 14.7558C8.90841 14.9121 8.70404 15 8.49095 15C8.27786 15 8.07349 14.9121 7.92279 14.7558Z" fill="white"/>
</svg>
