<svg width="20" height="20" viewBox="0 0 20 20" fill="none" xmlns="http://www.w3.org/2000/svg">
<path d="M7.75114 13.5768C7.67152 13.6542 7.60836 13.7461 7.56527 13.8472C7.52218 13.9484 7.5 14.0568 7.5 14.1663C7.5 14.2758 7.52218 14.3842 7.56527 14.4853C7.60836 14.5865 7.67152 14.6784 7.75114 14.7558C7.83077 14.8332 7.92529 14.8946 8.02932 14.9365C8.13335 14.9784 8.24485 15 8.35746 15C8.47006 15 8.58156 14.9784 8.68559 14.9365C8.78962 14.8946 8.88415 14.8332 8.96377 14.7558L13.2487 10.5895C13.3283 10.5121 13.3915 10.4202 13.4347 10.3191C13.4778 10.2179 13.5 10.1095 13.5 10C13.5 9.8905 13.4778 9.78207 13.4347 9.68091C13.3915 9.57976 13.3283 9.48786 13.2487 9.41047L8.96377 5.24419C8.88415 5.16677 8.78962 5.10536 8.68559 5.06346C8.58156 5.02156 8.47006 5 8.35746 5C8.24485 5 8.13335 5.02156 8.02932 5.06346C7.92529 5.10536 7.83077 5.16677 7.75114 5.24419C7.67152 5.32161 7.60836 5.41352 7.56527 5.51467C7.52218 5.61582 7.5 5.72423 7.5 5.83372C7.5 5.9432 7.52218 6.05162 7.56527 6.15277C7.60836 6.25392 7.67152 6.34583 7.75114 6.42325L11.4308 10L7.75114 13.5768Z" fill="#0171C7"/>
</svg>
