<svg width="24" height="24" viewBox="0 0 24 24" fill="none" xmlns="http://www.w3.org/2000/svg">
<path fill-rule="evenodd" clip-rule="evenodd" d="M6.29309 9.2928C6.48082 9.10532 6.73539 9 7.00083 9C7.26627 9 7.52084 9.10532 7.70857 9.2928L12.006 13.5861L16.3035 9.2928C16.4923 9.11064 16.7452 9.00983 17.0077 9.01211C17.2701 9.01439 17.5212 9.11957 17.7068 9.30499C17.8924 9.49041 17.9977 9.74123 18 10.0034C18.0022 10.2657 17.9013 10.5183 17.719 10.7069L12.7138 15.7072C12.5261 15.8947 12.2715 16 12.006 16C11.7406 16 11.486 15.8947 11.2983 15.7072L6.29309 10.7069C6.10543 10.5194 6 10.265 6 9.99985C6 9.73467 6.10543 9.48034 6.29309 9.2928Z" fill="#6E7C89"/>
</svg>
