<svg width="44" height="44" viewBox="0 0 44 44" fill="none" xmlns="http://www.w3.org/2000/svg">
<path d="M0 22C0 9.84974 9.84974 0 22 0C34.1503 0 44 9.84974 44 22C44 34.1503 34.1503 44 22 44C9.84974 44 0 34.1503 0 22Z" fill="#1E252C"/>
<path d="M18.5835 30.0835H20.3335V26.5279H25.5835V24.7502H20.3335V22.9724H24.7085C27.1235 22.9724 29.0835 20.9813 29.0835 18.5279C29.0835 16.0746 27.1235 14.0835 24.7085 14.0835H19.4585C18.9772 14.0835 18.5835 14.4835 18.5835 14.9724V21.1946H15.0835V22.9724H18.5835V24.7502H15.0835V26.5279H18.5835V30.0835ZM20.3335 15.8613H24.7085C26.1522 15.8613 27.3335 17.0613 27.3335 18.5279C27.3335 19.9946 26.1522 21.1946 24.7085 21.1946H20.3335V15.8613Z" fill="white"/>
</svg>
