<svg width="48" height="48" viewBox="0 0 48 48" fill="none" xmlns="http://www.w3.org/2000/svg">
<circle cx="24" cy="24" r="21" stroke="#6E7C89" stroke-width="2" stroke-linecap="round" stroke-dasharray="10 8"/>
<path d="M24 45C35.598 45 45 35.598 45 24C45 12.402 35.598 3 24 3C12.402 3 3 12.402 3 24C3 35.598 12.402 45 24 45Z" stroke="#0183E0" stroke-width="2" stroke-linecap="round"/>
<path d="M23.9038 30.288C23.3278 30.288 22.7578 30.18 22.1938 29.964C21.6298 29.736 21.1258 29.382 20.6818 28.902C20.2378 28.422 19.9078 27.81 19.6918 27.066L21.5098 26.31C21.6898 26.97 21.9838 27.486 22.3918 27.858C22.8118 28.23 23.3158 28.416 23.9038 28.416C24.2998 28.416 24.6658 28.326 25.0018 28.146C25.3498 27.966 25.6258 27.72 25.8298 27.408C26.0458 27.084 26.1538 26.718 26.1538 26.31C26.1538 25.89 26.0458 25.524 25.8298 25.212C25.6138 24.9 25.3198 24.654 24.9478 24.474C24.5878 24.294 24.1738 24.204 23.7058 24.204H22.6438V22.422H23.6158C23.9998 22.422 24.3478 22.344 24.6598 22.188C24.9838 22.02 25.2418 21.792 25.4338 21.504C25.6258 21.204 25.7218 20.856 25.7218 20.46C25.7218 20.088 25.6378 19.764 25.4698 19.488C25.3138 19.212 25.0918 19.002 24.8038 18.858C24.5158 18.702 24.1798 18.624 23.7958 18.624C23.3878 18.624 23.0458 18.714 22.7698 18.894C22.5058 19.074 22.2898 19.296 22.1218 19.56C21.9658 19.812 21.8458 20.064 21.7618 20.316L19.9978 19.56C20.1298 19.176 20.3578 18.774 20.6818 18.354C21.0058 17.922 21.4258 17.562 21.9418 17.274C22.4698 16.974 23.0998 16.824 23.8318 16.824C24.5998 16.824 25.2718 16.974 25.8478 17.274C26.4238 17.574 26.8738 17.988 27.1978 18.516C27.5218 19.032 27.6838 19.632 27.6838 20.316C27.6838 20.796 27.6058 21.228 27.4498 21.612C27.3058 21.984 27.1078 22.302 26.8558 22.566C26.6158 22.818 26.3518 23.016 26.0638 23.16V23.268C26.4478 23.412 26.7898 23.634 27.0898 23.934C27.4018 24.234 27.6478 24.594 27.8278 25.014C28.0198 25.422 28.1158 25.884 28.1158 26.4C28.1158 27.144 27.9298 27.81 27.5578 28.398C27.1978 28.986 26.6998 29.448 26.0638 29.784C25.4278 30.12 24.7078 30.288 23.9038 30.288Z" fill="#E6F4FF"/>
</svg>
