<svg width="48" height="48" viewBox="0 0 48 48" fill="none" xmlns="http://www.w3.org/2000/svg">
<circle cx="24" cy="24" r="21" stroke="#6E7C89" stroke-width="2" stroke-linecap="round" stroke-dasharray="3 8"/>
<path d="M24 3C35.598 3 45 12.402 45 24C45 35.598 35.598 45 24 45C12.402 45 3 35.598 3 24" stroke="#0183E0" stroke-width="2" stroke-linecap="round"/>
<path d="M19.9944 30V28.164C20.0304 28.14 20.1384 28.032 20.3184 27.84C20.5104 27.636 20.7444 27.378 21.0204 27.066C21.3084 26.754 21.6144 26.424 21.9384 26.076C22.2744 25.716 22.6044 25.362 22.9284 25.014C23.2644 24.654 23.5644 24.33 23.8284 24.042C24.1044 23.754 24.3144 23.532 24.4584 23.376C24.9504 22.848 25.3044 22.374 25.5204 21.954C25.7484 21.522 25.8624 21.072 25.8624 20.604C25.8624 20.268 25.7784 19.956 25.6104 19.668C25.4544 19.368 25.2204 19.128 24.9084 18.948C24.5964 18.756 24.2364 18.66 23.8284 18.66C23.4204 18.66 23.0724 18.744 22.7844 18.912C22.4964 19.08 22.2624 19.29 22.0824 19.542C21.9024 19.794 21.7764 20.052 21.7044 20.316L19.9584 19.596C20.0424 19.308 20.1804 19.008 20.3724 18.696C20.5764 18.372 20.8404 18.066 21.1644 17.778C21.4884 17.49 21.8784 17.262 22.3344 17.094C22.7904 16.914 23.3064 16.824 23.8824 16.824C24.6984 16.824 25.4004 17.004 25.9884 17.364C26.5764 17.712 27.0324 18.168 27.3564 18.732C27.6804 19.284 27.8424 19.884 27.8424 20.532C27.8424 21.06 27.7404 21.576 27.5364 22.08C27.3324 22.572 27.0744 23.04 26.7624 23.484C26.4624 23.916 26.1444 24.306 25.8084 24.654C25.6524 24.822 25.4484 25.038 25.1964 25.302C24.9564 25.566 24.6984 25.848 24.4224 26.148C24.1584 26.436 23.8944 26.718 23.6304 26.994C23.3784 27.27 23.1504 27.516 22.9464 27.732C22.7544 27.948 22.6104 28.098 22.5144 28.182L22.5324 28.236H27.9684V30H19.9944Z" fill="#E6F4FF"/>
</svg>
