<svg width="22" height="22" viewBox="0 0 22 22" fill="none" xmlns="http://www.w3.org/2000/svg">
<path d="M18.6712 19.4791C18.6712 19.6615 18.5987 19.8364 18.4698 19.9653C18.3409 20.0942 18.166 20.1666 17.9837 20.1666H4.01367C3.83134 20.1666 3.65647 20.0942 3.52754 19.9653C3.3986 19.8364 3.32617 19.6615 3.32617 19.4791C3.32617 15.7208 7.45117 12.8058 10.9987 12.8058C14.5462 12.8058 18.6712 15.7208 18.6712 19.4791ZM15.6737 6.51748C15.6719 7.44172 15.3961 8.34468 14.8813 9.11227C14.3665 9.87986 13.6358 10.4776 12.7814 10.8301C11.927 11.1825 10.9873 11.2738 10.081 11.0924C9.17476 10.9109 8.34261 10.465 7.68972 9.8108C7.03683 9.15662 6.59249 8.3236 6.41284 7.41699C6.2332 6.51038 6.32631 5.57087 6.68042 4.71716C7.03453 3.86345 7.63374 3.13385 8.40234 2.62056C9.17094 2.10727 10.0744 1.83331 10.9987 1.83331C12.2394 1.83574 13.4285 2.33032 14.305 3.20851C15.1814 4.0867 15.6737 5.27675 15.6737 6.51748Z" fill="white"/>
</svg>
