<svg width="40" height="40" viewBox="0 0 40 40" fill="none" xmlns="http://www.w3.org/2000/svg">
<path d="M0 12C0 5.37258 5.37258 0 12 0H28C34.6274 0 40 5.37258 40 12V28C40 34.6274 34.6274 40 28 40H12C5.37258 40 0 34.6274 0 28V12Z" fill="#3B4650"/>
<path d="M34 17.0439V24.9561C34 28.121 33.9998 29.7041 33.4551 30.9131L33.3623 31.1113C32.8799 32.0845 32.1515 32.8758 31.2695 33.3838L31.0654 33.4922C30.2988 33.8645 29.3444 33.9638 27.8545 33.9902L26 34H14L12.1455 33.9902C10.6556 33.9638 9.70119 33.8645 8.93457 33.4922L8.73047 33.3838C7.7897 32.8419 7.02427 31.9766 6.54492 30.9131C6.13645 30.0064 6.03433 28.8895 6.00879 27.0527L6 24.9561V17.0439C6 16.6753 6.00304 16.3276 6.00391 16H33.9961C33.997 16.3276 34 16.6753 34 17.0439ZM14.5 25C13.6716 25 13 25.6716 13 26.5C13 27.3284 13.6716 28 14.5 28C15.3284 28 16 27.3284 16 26.5C16 25.6716 15.3284 25 14.5 25ZM20 25C19.1716 25 18.5 25.6716 18.5 26.5C18.5 27.3284 19.1716 28 20 28C20.8284 28 21.5 27.3284 21.5 26.5C21.5 25.6716 20.8284 25 20 25ZM14.5 20C13.6716 20 13 20.6716 13 21.5C13 22.3284 13.6716 23 14.5 23C15.3284 23 16 22.3284 16 21.5C16 20.6716 15.3284 20 14.5 20ZM20 20C19.1716 20 18.5 20.6716 18.5 21.5C18.5 22.3284 19.1716 23 20 23C20.8284 23 21.5 22.3284 21.5 21.5C21.5 20.6716 20.8284 20 20 20ZM25.5 20C24.6716 20 24 20.6716 24 21.5C24 22.3284 24.6716 23 25.5 23C26.3284 23 27 22.3284 27 21.5C27 20.6716 26.3284 20 25.5 20ZM25 6C25.5523 6 26 6.44772 26 7V8C28.8 8 30.2 8.00036 31.2695 8.61621C32.2103 9.15811 32.9757 10.0234 33.4551 11.0869C33.7881 11.8261 33.9165 12.7051 33.9668 14H6.03418C6.07937 12.837 6.18621 12.0094 6.44922 11.3174L6.54492 11.0869C6.99435 10.0898 7.6946 9.2661 8.55566 8.7207L8.73047 8.61621C9.79998 8.00036 11.2 8 14 8V7C14 6.44772 14.4477 6 15 6C15.5523 6 16 6.44772 16 7V8H24V7C24 6.44772 24.4477 6 25 6Z" fill="#A9B6C3"/>
</svg>
