<svg width="40" height="40" viewBox="0 0 40 40" fill="none" xmlns="http://www.w3.org/2000/svg">
<path d="M0 12C0 5.37258 5.37258 0 12 0H28C34.6274 0 40 5.37258 40 12V28C40 34.6274 34.6274 40 28 40H12C5.37258 40 0 34.6274 0 28V12Z" fill="#3B4650"/>
<path d="M32.3702 19.0628C32.4158 19.0695 32.4561 19.0914 32.4874 19.1253C32.5227 19.1635 32.5375 19.2235 32.5665 19.344C32.7719 20.1973 32.8809 21.0849 32.8809 21.9963C32.8809 28.6259 27.1504 34.0002 20.0811 34.0003C13.0119 34.0001 7.28036 28.6258 7.28036 21.9963C7.28041 21.1054 7.38476 20.2372 7.58114 19.4016C7.60908 19.2827 7.6228 19.2231 7.65731 19.1848C7.68801 19.1509 7.72836 19.1288 7.77352 19.1213C7.82435 19.1131 7.88641 19.135 8.00985 19.179C8.11352 19.2158 8.22012 19.2508 8.32919 19.2835C8.36274 19.2935 8.39676 19.3034 8.43075 19.3128C8.51979 19.3373 8.56458 19.3498 8.59286 19.3694C8.62247 19.3901 8.63597 19.4052 8.6534 19.4368C8.67008 19.467 8.67939 19.5222 8.69735 19.6321C8.74224 19.9067 8.86939 20.1766 9.08993 20.4104C9.72641 21.085 10.8541 21.8839 12.3126 22.0374C12.3775 22.0442 12.4429 22.0491 12.5079 22.053C12.6814 22.0635 12.7493 22.28 12.5929 22.3557C12.5807 22.3599 12.5542 22.3705 12.5069 22.385C12.3817 22.4234 12.3236 22.438 12.1319 22.4954C11.8423 22.582 11.3965 22.7232 10.9786 22.9544C10.5611 23.1853 10.0081 23.5956 9.74325 24.2922C9.46705 25.0192 9.61822 25.752 9.9493 26.3889C10.3076 27.0774 10.9749 27.2527 11.4747 27.2415C11.5451 27.2399 11.5803 27.2399 11.6046 27.2454C11.6299 27.2512 11.644 27.2561 11.6661 27.2698C11.6872 27.2829 11.7106 27.3077 11.7569 27.3557C11.9482 27.5538 12.1724 27.7311 12.4278 27.8831C12.9893 28.2171 13.5693 28.1949 14.0294 27.9661C14.0605 27.9506 14.0971 27.9467 14.1309 27.9544C14.22 27.9747 14.2741 28.0699 14.2481 28.1575C14.0981 28.6619 14.2172 29.2387 14.6681 29.6604C15.1692 30.1289 15.9686 30.7924 16.8468 31.3499C17.2868 31.6292 17.7769 31.9016 18.2813 32.1077C18.7707 32.3075 19.3684 32.4846 19.9991 32.4846C20.6298 32.4846 21.2275 32.3075 21.7169 32.1077C22.2213 31.9016 22.7114 31.6292 23.1515 31.3499C24.0296 30.7924 24.8291 30.1289 25.3302 29.6604C25.7811 29.2386 25.8994 28.6619 25.7491 28.1575C25.723 28.07 25.7773 27.9747 25.8663 27.9544C25.8999 27.9468 25.936 27.9508 25.9669 27.9661C26.4271 28.1953 27.0086 28.2173 27.5704 27.8831C27.8256 27.7312 28.0493 27.5537 28.2403 27.3557C28.2867 27.3076 28.31 27.2829 28.3311 27.2698C28.353 27.2562 28.3667 27.2511 28.3917 27.2454C28.416 27.2398 28.4518 27.2398 28.5225 27.2415C29.0224 27.2529 29.6905 27.0778 30.0489 26.3889C30.38 25.752 30.5312 25.0192 30.255 24.2922C29.9901 23.5955 29.4362 23.1853 29.0186 22.9544C28.6009 22.7234 28.1559 22.582 27.8663 22.4954C27.6746 22.438 27.6164 22.4233 27.4913 22.385C27.4431 22.3702 27.4162 22.3598 27.4044 22.3557C27.2478 22.28 27.3157 22.0634 27.4893 22.053C27.5545 22.0491 27.6196 22.0442 27.6847 22.0374C29.1434 21.884 30.2718 21.0851 30.9083 20.4104C31.1288 20.1766 31.2553 19.9067 31.2999 19.6321C31.3177 19.5224 31.3271 19.4671 31.3438 19.4368C31.3612 19.4054 31.3748 19.391 31.4044 19.3704C31.4327 19.3506 31.477 19.3373 31.5665 19.3128C31.6009 19.3033 31.6351 19.2936 31.669 19.2835C31.829 19.2355 31.9836 19.1828 32.1319 19.1262C32.2562 19.0788 32.3187 19.0552 32.3702 19.0628ZM22.4268 6.36842C24.4081 6.66967 26.9474 4.9448 28.5694 7.1106C28.5861 7.13275 28.6116 7.14826 28.6397 7.15162C29.6314 7.26525 31.203 7.64629 30.3458 9.17994C30.3146 9.23571 30.2358 9.24641 30.1895 9.20143C29.7338 8.75852 29.4112 8.48566 28.9327 8.4651C27.6649 8.4106 26.2365 8.30077 26.2364 11.929C26.2364 12.749 28.4056 12.5912 35.8985 12.427C35.9576 12.4257 36.0077 12.4731 36.0001 12.5296C35.8073 13.916 33.9679 16.1484 27.922 14.7337C29.2681 15.1727 32.4723 16.1308 33.1768 16.3411C33.2441 16.3614 33.2667 16.4376 33.2188 16.4876C32.6914 17.0376 30.029 19.4692 26.2013 17.0325L29.5186 19.2913C29.5662 19.3237 29.5758 19.3879 29.5372 19.4299C28.6128 20.4364 26.3902 21.6279 24.2061 19.053C24.1482 18.9852 24.0329 19.0169 24.0294 19.1047C23.9782 20.3723 24.3661 22.558 26.5733 23.6389C27.1536 23.9231 29.3056 24.1095 28.4727 25.7551C28.4262 25.8465 28.2642 25.8018 28.2462 25.7014C28.1748 25.3037 27.9159 24.8615 27.2403 24.801C27.1667 24.7944 27.1171 24.8688 27.1446 24.9348C27.3916 25.5211 27.3526 26.2052 26.5948 26.6682C26.5225 26.7122 26.4379 26.6477 26.462 26.5686C26.6163 26.0625 26.7998 25.6522 26.3888 25.2512C26.3306 25.1945 26.2334 25.2378 26.2218 25.3167C26.1566 25.7608 25.8792 26.337 25.3907 26.552C25.3202 26.5827 25.253 26.5166 25.2735 26.4446C25.7143 24.901 25.4705 24.0891 24.8878 23.804C23.7161 23.2307 22.9262 22.7821 22.297 22.1331C22.2251 22.0589 22.087 22.1219 22.1085 22.221C22.5353 24.1561 23.4141 27.5527 24.1583 28.5188C24.189 28.5587 24.1868 28.6135 24.1505 28.6487C23.2732 29.491 21.3155 31.0608 20.0001 31.0608C18.6847 31.0605 16.7278 29.4909 15.8507 28.6487C15.8143 28.6135 15.8121 28.5587 15.8429 28.5188C16.587 27.5527 17.4658 24.1561 17.8927 22.221C17.9141 22.1219 17.776 22.059 17.7042 22.1331C17.075 22.7821 16.285 23.2307 15.1134 23.804C14.5306 24.0891 14.2869 24.9009 14.7276 26.4446C14.7482 26.5165 14.6809 26.5826 14.6104 26.552C14.122 26.337 13.8445 25.7608 13.7794 25.3167C13.7677 25.2378 13.6706 25.1945 13.6124 25.2512C13.2014 25.6522 13.3838 26.0626 13.5382 26.5686C13.5623 26.6477 13.4786 26.7121 13.4063 26.6682C12.6485 26.2052 12.6096 25.5211 12.8565 24.9348C12.884 24.8688 12.8344 24.7945 12.7608 24.801C12.0852 24.8615 11.8263 25.3037 11.755 25.7014C11.737 25.8018 11.575 25.8464 11.5284 25.7551C10.6956 24.1095 12.8475 23.9231 13.4278 23.6389C15.6349 22.558 16.0229 20.3723 15.9718 19.1047C15.9682 19.0169 15.8529 18.9853 15.795 19.053C13.611 21.6278 11.3883 20.4364 10.464 19.4299C10.4253 19.3879 10.4349 19.3237 10.4825 19.2913L13.7999 17.0325C9.97159 19.4696 7.30831 17.0372 6.78133 16.4876C6.7337 16.4376 6.75707 16.3613 6.8243 16.3411C7.52889 16.1307 10.7331 15.1727 12.0792 14.7337C6.03312 16.1484 4.19385 13.916 4.00106 12.5296C3.99346 12.4731 4.0435 12.4257 4.10262 12.427C11.5955 12.5912 13.7647 12.749 13.7647 11.929C13.7646 8.30091 12.3362 8.4106 11.0684 8.4651C10.59 8.48566 10.2673 8.75856 9.81161 9.20143C9.76532 9.24641 9.68653 9.23571 9.65536 9.17994C8.79821 7.64644 10.3687 7.26531 11.3604 7.15162C11.3888 7.14837 11.415 7.13291 11.4317 7.1106C13.0538 4.9448 15.593 6.66967 17.5743 6.36842C17.6621 6.35527 17.7304 6.44711 17.6788 6.51685C17.4259 6.85865 17.1389 7.07262 16.9151 7.19361C16.8306 7.23951 16.8264 7.39343 16.9112 7.43873C18.5082 8.28149 19.6219 10.9434 19.9972 12.2473C19.9977 12.2493 20.0034 12.2493 20.004 12.2473C20.3793 10.9434 21.4921 8.28162 23.089 7.43873C23.1743 7.3937 23.1699 7.23949 23.085 7.19361C22.8614 7.07258 22.575 6.85835 22.3223 6.51685C22.2707 6.44708 22.339 6.35516 22.4268 6.36842Z" fill="#A9B6C3"/>
</svg>
