<svg width="155" height="48" viewBox="0 0 155 48" fill="none" xmlns="http://www.w3.org/2000/svg">
<path d="M24.9452 0.46309C25.0793 0.506681 25.2134 0.550272 25.3515 0.595184C25.7179 0.714473 26.084 0.834417 26.45 0.954665C26.8396 1.08247 27.2295 1.20942 27.6194 1.3365C29.8483 2.06362 32.0737 2.7992 34.2988 3.5356C37.0374 4.44177 39.784 5.32756 42.5327 6.20895C42.6122 6.23443 42.6916 6.2599 42.7734 6.28615C43.1456 6.40551 43.5179 6.52479 43.8902 6.64391C44.0216 6.68602 44.153 6.72812 44.2884 6.7715C44.4017 6.80775 44.515 6.84399 44.6317 6.88134C45.0718 7.02443 45.5099 7.17179 45.9481 7.31946C45.9593 9.71032 45.9677 12.1012 45.9729 14.4921C45.9753 15.6025 45.9787 16.713 45.9842 17.8234C45.989 18.7928 45.992 19.7621 45.9931 20.7315C45.9937 21.2434 45.9951 21.7553 45.9987 22.2672C46.0202 25.5156 45.7914 28.5097 44.6327 31.6204C44.6047 31.6986 44.5767 31.7768 44.5478 31.8573C43.6381 34.3794 42.0161 36.6908 40.0885 38.6858C40.0097 38.7682 39.9309 38.8506 39.8498 38.9355C38.5071 40.3055 37.0701 41.5723 35.4247 42.6468C35.3482 42.6975 35.2716 42.7482 35.1928 42.8004C33.3419 44.0227 31.3867 45.0954 29.3078 45.9778C29.0955 46.0687 28.885 46.1629 28.6747 46.2573C27.2662 46.875 25.7879 47.3363 24.3033 47.7853C24.2221 47.8102 24.1409 47.8351 24.0572 47.8607C23.2329 48.0951 22.521 48.009 21.7098 47.7853C21.6221 47.7614 21.5344 47.7376 21.444 47.713C16.8305 46.4193 12.4958 44.2237 8.87695 41.3621C8.77444 41.2822 8.67193 41.2023 8.56631 41.12C7.2763 40.1006 6.11589 39.0365 5.08698 37.8023C4.93754 37.6235 4.7855 37.4467 4.63311 37.2699C3.10639 35.4651 2.06348 33.4237 1.22356 31.2992C1.17223 31.1696 1.12089 31.0401 1.06801 30.9065C-0.0526153 27.8505 -0.00781664 24.6858 0.00346579 21.5084C0.00498178 21.0079 0.00510319 20.5074 0.00538539 20.007C0.00612271 19.0634 0.00807646 18.1198 0.0104909 17.1762C0.0131832 16.1002 0.0144846 15.0242 0.0156804 13.9482C0.0181666 11.7386 0.0223614 9.52904 0.0277162 7.31946C0.0994842 7.29645 0.171252 7.27343 0.245194 7.24972C5.02648 5.71728 5.02648 5.71728 9.80373 4.1748C10.0112 4.10758 10.0112 4.10758 10.2228 4.03901C12.892 3.17374 15.5567 2.29729 18.2194 1.41597C18.4791 1.33013 18.7389 1.24451 18.9988 1.15912C19.6238 0.953694 20.2472 0.74539 20.8683 0.530677C20.9879 0.490018 21.1074 0.449359 21.2306 0.407468C21.4542 0.33139 21.6773 0.25403 21.8996 0.175117C23.0316 -0.206346 23.8519 0.102446 24.9452 0.46309Z" fill="url(#paint0_linear_1634_1621)"/>
<path d="M30.6215 22.7907C32.0841 22.9156 33.2078 23.3794 33.9926 24.182C34.7953 24.9668 35.1966 26.0013 35.1966 27.2856C35.1966 28.8909 34.6348 30.1395 33.5111 31.0313C32.4052 31.9053 30.6572 32.3423 28.2671 32.3423L13.9531 32.3423L13.9531 13.6138L28.3473 13.6138C30.4164 13.6138 31.9593 14.024 32.976 14.8445C34.0105 15.665 34.5277 16.7709 34.5277 18.1621C34.5277 19.3037 34.1799 20.249 33.4843 20.9982C32.8065 21.7295 31.8522 22.1575 30.6215 22.2824L30.6215 22.7907ZM18.5817 17.2792L18.5817 21.2122L27.3039 21.2122C28.1065 21.2122 28.713 21.0338 29.1232 20.6771C29.5513 20.3204 29.7653 19.8477 29.7653 19.2591C29.7653 18.6526 29.5513 18.171 29.1232 17.8143C28.713 17.4576 28.1065 17.2792 27.3039 17.2792L18.5817 17.2792ZM27.7587 28.6769C28.6506 28.6769 29.3194 28.4985 29.7653 28.1418C30.2113 27.7672 30.4342 27.2499 30.4342 26.59C30.4342 25.93 30.2113 25.4127 29.7653 25.0382C29.3194 24.6636 28.6506 24.4763 27.7587 24.4763L18.5817 24.4763L18.5817 28.6769L27.7587 28.6769Z" fill="#E6F4FF"/>
<path d="M9.55566 20.6302L9.55566 17.4769L16.7617 17.4769L16.7617 20.6302L9.55566 20.6302Z" fill="#E6F4FF"/>
<path d="M9.55566 28.063L9.55566 24.9097L16.7617 24.9097L16.7617 28.063L9.55566 28.063Z" fill="#E6F4FF"/>
<g clip-path="url(#clip0_1634_1621)">
<path d="M114.31 33.25C114.87 33.25 115.35 33.35 115.76 33.55C116.17 33.75 116.49 34.03 116.71 34.39C116.94 34.74 117.05 35.15 117.05 35.62C117.05 36.09 116.94 36.5 116.71 36.86C116.49 37.21 116.17 37.49 115.76 37.69C115.35 37.89 114.87 37.99 114.31 37.99H110.94V36.85H114.26C114.71 36.85 115.07 36.74 115.32 36.52C115.58 36.3 115.71 36 115.71 35.62C115.71 35.24 115.58 34.94 115.32 34.72C115.07 34.5 114.71 34.39 114.26 34.39H111.07L111.66 33.73V40.75H110.34V33.25H114.31Z" fill="#E6F4FF"/>
<path d="M108.44 36.45V37.55H103.2V36.45H108.44ZM103.54 37.14V40.35L102.91 39.61H108.73V40.75H102.19V33.25H108.68V34.39H102.91L103.54 33.65V37.14Z" fill="#E6F4FF"/>
<path d="M93.1899 33.25H94.5099V40.75H93.1899V33.25ZM99.2899 33.25H100.61V40.75H99.2899V33.25ZM93.8999 36.39H99.9199V37.55H93.8999V36.39Z" fill="#E6F4FF"/>
<path d="M87.4301 33.86H88.7501V40.75H87.4301V33.86ZM84.3301 33.25H91.8501V34.41H84.3301V33.25Z" fill="#E6F4FF"/>
<path d="M80.9202 33.25C81.4802 33.25 81.9602 33.35 82.3702 33.55C82.7802 33.75 83.1002 34.03 83.3202 34.39C83.5502 34.74 83.6602 35.15 83.6602 35.62C83.6602 36.09 83.5502 36.5 83.3202 36.86C83.1002 37.21 82.7802 37.49 82.3702 37.69C81.9602 37.89 81.4802 37.99 80.9202 37.99H77.5502V36.85H80.8702C81.3202 36.85 81.6802 36.74 81.9302 36.52C82.1902 36.3 82.3202 36 82.3202 35.62C82.3202 35.24 82.1902 34.94 81.9302 34.72C81.6802 34.5 81.3202 34.39 80.8702 34.39H77.6802L78.2702 33.73V40.75H76.9502V33.25H80.9202Z" fill="#E6F4FF"/>
<path d="M68.7798 39.03V37.94H74.0198V39.03H68.7798ZM72.2598 33.25L75.8598 40.75H74.4498L71.1798 33.75H71.6898L68.4198 40.75H67.0098L70.6098 33.25H72.2598Z" fill="#E6F4FF"/>
<path d="M65.9098 33.25V40.75H64.5998V33.82L65.1998 34.42H59.2498L59.8498 33.82V40.75H58.5298V33.25H65.9098Z" fill="#E6F4FF"/>
<path d="M146.35 27.75V20.25H147.63V27.13L147.18 27.05L152.41 20.25H154.13V27.75H152.85V20.81L153.3 20.89L148.03 27.75H146.35ZM148.01 18.1H149.09C149.16 18.35 149.29 18.55 149.47 18.69C149.66 18.82 149.89 18.89 150.18 18.89C150.47 18.89 150.71 18.82 150.89 18.69C151.07 18.55 151.2 18.35 151.27 18.1H152.35C152.24 18.63 151.99 19.03 151.6 19.3C151.21 19.56 150.74 19.69 150.18 19.69C149.62 19.69 149.15 19.56 148.76 19.3C148.37 19.03 148.12 18.63 148.01 18.1Z" fill="#E6F4FF"/>
<path d="M135.83 27.75V20.25H137.15V27.27L136.56 26.68H139.7C140.16 26.68 140.52 26.56 140.79 26.33C141.06 26.09 141.19 25.77 141.19 25.38C141.19 24.99 141.06 24.66 140.79 24.43C140.52 24.19 140.16 24.07 139.7 24.07H136.43V23H139.76C140.33 23 140.82 23.1 141.23 23.3C141.64 23.5 141.96 23.78 142.19 24.14C142.42 24.49 142.53 24.91 142.53 25.38C142.53 25.85 142.42 26.26 142.19 26.62C141.96 26.97 141.64 27.25 141.23 27.45C140.82 27.65 140.33 27.75 139.76 27.75H135.83ZM143.35 20.25H144.67V27.75H143.35V20.25Z" fill="#E6F4FF"/>
<path d="M131.91 24.03L132.04 23.74C132.63 23.74 133.12 23.84 133.49 24.01C133.87 24.18 134.15 24.42 134.32 24.71C134.5 25 134.59 25.33 134.59 25.7C134.59 26.1 134.49 26.45 134.3 26.76C134.11 27.07 133.84 27.31 133.47 27.49C133.1 27.66 132.65 27.75 132.1 27.75H127.1V20.25H131.92C132.61 20.25 133.15 20.41 133.52 20.74C133.9 21.06 134.09 21.5 134.09 22.07C134.09 22.37 134.02 22.66 133.87 22.95C133.73 23.23 133.5 23.47 133.18 23.67C132.87 23.86 132.44 23.98 131.91 24.03ZM128.43 27.38L127.92 26.69H131.95C132.36 26.69 132.68 26.6 132.91 26.41C133.14 26.22 133.26 25.94 133.26 25.59C133.26 25.22 133.12 24.93 132.85 24.72C132.58 24.51 132.19 24.41 131.66 24.41H128.41V23.39H131.53C131.88 23.39 132.18 23.29 132.41 23.1C132.64 22.9 132.76 22.62 132.76 22.25C132.76 21.98 132.66 21.75 132.47 21.58C132.28 21.4 132 21.31 131.63 21.31H127.92L128.43 20.62L128.41 23.9L128.43 27.38Z" fill="#E6F4FF"/>
<path d="M121.52 27.89C120.67 27.89 119.92 27.73 119.27 27.4C118.62 27.07 118.12 26.62 117.76 26.04C117.4 25.45 117.22 24.77 117.22 24C117.22 23.23 117.4 22.55 117.76 21.97C118.12 21.38 118.62 20.93 119.27 20.6C119.92 20.27 120.67 20.11 121.52 20.11C122.37 20.11 123.12 20.27 123.77 20.6C124.42 20.93 124.92 21.38 125.28 21.97C125.64 22.55 125.82 23.23 125.82 24C125.82 24.77 125.64 25.45 125.28 26.04C124.92 26.62 124.42 27.07 123.77 27.4C123.12 27.73 122.37 27.89 121.52 27.89ZM121.52 26.71C122.13 26.71 122.65 26.6 123.09 26.38C123.53 26.16 123.87 25.85 124.11 25.44C124.36 25.03 124.48 24.55 124.48 24C124.48 23.45 124.36 22.97 124.11 22.56C123.87 22.15 123.53 21.84 123.09 21.62C122.65 21.4 122.13 21.29 121.52 21.29C120.91 21.29 120.4 21.4 119.95 21.62C119.51 21.84 119.17 22.15 118.92 22.56C118.68 22.97 118.56 23.45 118.56 24C118.56 24.55 118.68 25.03 118.92 25.44C119.17 25.85 119.51 26.16 119.95 26.38C120.4 26.6 120.92 26.71 121.52 26.71Z" fill="#E6F4FF"/>
<path d="M115.94 24.78C115.87 25.39 115.66 25.94 115.29 26.41C114.93 26.88 114.46 27.24 113.87 27.5C113.28 27.76 112.61 27.89 111.86 27.89C111.02 27.89 110.28 27.73 109.65 27.4C109.02 27.07 108.52 26.62 108.17 26.04C107.82 25.45 107.64 24.77 107.64 24C107.64 23.23 107.82 22.55 108.17 21.97C108.52 21.38 109.02 20.93 109.65 20.6C110.28 20.27 111.02 20.11 111.86 20.11C112.61 20.11 113.28 20.24 113.87 20.5C114.46 20.76 114.93 21.12 115.29 21.59C115.66 22.06 115.87 22.6 115.94 23.22H114.61C114.54 22.82 114.38 22.48 114.13 22.19C113.89 21.9 113.58 21.68 113.19 21.53C112.8 21.37 112.36 21.29 111.85 21.29C111.26 21.29 110.75 21.4 110.32 21.62C109.89 21.84 109.56 22.15 109.33 22.56C109.1 22.97 108.98 23.45 108.98 24C108.98 24.55 109.1 25.03 109.33 25.44C109.56 25.85 109.89 26.16 110.32 26.38C110.75 26.6 111.26 26.71 111.85 26.71C112.36 26.71 112.8 26.63 113.19 26.48C113.58 26.33 113.89 26.11 114.13 25.82C114.38 25.53 114.54 25.18 114.61 24.78H115.94Z" fill="#E6F4FF"/>
<path d="M98.8101 20.25H100.13V27.75H98.8101V20.25ZM104.91 20.25H106.23V27.75H104.91V20.25ZM99.5201 23.39H105.54V24.55H99.5201V23.39Z" fill="#E6F4FF"/>
<path d="M90.81 26.03V24.94H96.05V26.03H90.81ZM94.29 20.25L97.89 27.75H96.48L93.21 20.75H93.72L90.45 27.75H89.04L92.64 20.25H94.29Z" fill="#E6F4FF"/>
<path d="M80.71 20.25H82.03V27.75H80.71V20.25ZM86.81 20.25H88.13V27.75H86.81V20.25ZM81.42 23.39H87.44V24.55H81.42V23.39Z" fill="#E6F4FF"/>
<path d="M71.25 27.75V20.25H72.53V27.13L72.08 27.05L77.31 20.25H79.03V27.75H77.75V20.81L78.2 20.89L72.93 27.75H71.25Z" fill="#E6F4FF"/>
<path d="M63.99 26.45V25.38H66.61C66.98 25.38 67.3 25.32 67.57 25.19C67.84 25.06 68.05 24.87 68.2 24.64C68.35 24.4 68.42 24.12 68.42 23.8C68.42 23.48 68.35 23.2 68.2 22.97C68.05 22.74 67.84 22.56 67.57 22.43C67.3 22.3 66.98 22.23 66.61 22.23H64V21.16H66.67C67.3 21.16 67.84 21.27 68.3 21.5C68.76 21.72 69.12 22.03 69.37 22.42C69.63 22.81 69.76 23.27 69.76 23.8C69.76 24.33 69.63 24.79 69.37 25.19C69.12 25.58 68.76 25.89 68.3 26.12C67.84 26.34 67.3 26.45 66.67 26.45H63.99ZM61.09 26.45C60.47 26.45 59.93 26.34 59.46 26.12C59 25.89 58.64 25.58 58.38 25.19C58.13 24.79 58 24.33 58 23.8C58 23.27 58.13 22.81 58.38 22.42C58.64 22.03 59 21.72 59.46 21.5C59.93 21.27 60.47 21.16 61.09 21.16H63.75V22.23H61.14C60.77 22.23 60.45 22.3 60.18 22.43C59.91 22.56 59.71 22.74 59.56 22.97C59.41 23.2 59.34 23.48 59.34 23.8C59.34 24.12 59.41 24.4 59.56 24.64C59.71 24.87 59.91 25.06 60.18 25.19C60.45 25.32 60.77 25.38 61.14 25.38H63.76V26.45H61.09ZM63.22 27.93V20.07H64.54V27.93H63.22Z" fill="#E6F4FF"/>
<path d="M87.1499 13.58L86.5499 14.18V7.25H87.8699V14.75H76.1899V7.25H77.5099V14.18L76.9099 13.58H81.7399L81.3699 14.18V7.25H82.6899V14.18L82.2599 13.58H87.1499Z" fill="#E6F4FF"/>
<path d="M67.9502 13.03V11.94H73.1902V13.03H67.9502ZM71.4302 7.25L75.0302 14.75H73.6202L70.3502 7.75H70.8602L67.5902 14.75H66.1802L69.7802 7.25H71.4302Z" fill="#E6F4FF"/>
<path d="M63.08 11.03L63.21 10.74C63.8 10.74 64.29 10.84 64.66 11.01C65.04 11.18 65.32 11.42 65.49 11.71C65.67 12 65.76 12.33 65.76 12.7C65.76 13.1 65.66 13.45 65.47 13.76C65.28 14.07 65.01 14.31 64.64 14.49C64.27 14.66 63.82 14.75 63.27 14.75H58.27V7.25H63.09C63.78 7.25 64.32 7.41 64.69 7.74C65.07 8.06 65.26 8.5 65.26 9.07C65.26 9.37 65.19 9.66 65.04 9.95C64.9 10.23 64.67 10.47 64.35 10.67C64.04 10.86 63.61 10.98 63.08 11.03ZM59.6 14.38L59.09 13.69H63.12C63.53 13.69 63.85 13.6 64.08 13.41C64.31 13.22 64.43 12.94 64.43 12.59C64.43 12.22 64.29 11.93 64.02 11.72C63.75 11.51 63.36 11.41 62.83 11.41H59.58V10.39H62.7C63.05 10.39 63.35 10.29 63.58 10.1C63.81 9.9 63.93 9.62 63.93 9.25C63.93 8.98 63.83 8.75 63.64 8.58C63.45 8.4 63.17 8.31 62.8 8.31H59.09L59.6 7.62L59.58 10.9L59.6 14.38Z" fill="#E6F4FF"/>
</g>
<defs>
<linearGradient id="paint0_linear_1634_1621" x1="0" y1="24" x2="46" y2="24" gradientUnits="userSpaceOnUse">
<stop offset="0.495192" stop-color="#0183E1"/>
<stop offset="0.495292" stop-color="#0071C8"/>
</linearGradient>
<clipPath id="clip0_1634_1621">
<rect width="96.13" height="33.5" fill="white" transform="translate(58 7.25)"/>
</clipPath>
</defs>
</svg>
