<svg width="40" height="40" viewBox="0 0 40 40" fill="none" xmlns="http://www.w3.org/2000/svg">
<path d="M0 12C0 5.37258 5.37258 0 12 0H28C34.6274 0 40 5.37258 40 12V28C40 34.6274 34.6274 40 28 40H12C5.37258 40 0 34.6274 0 28V12Z" fill="#3B4650"/>
<path d="M20 6C23.5059 6 26.7109 7.28848 29.167 9.41797L30.293 8.29297C30.6835 7.9025 31.3165 7.90246 31.707 8.29297C32.0975 8.68347 32.0975 9.3165 31.707 9.70703L30.5811 10.832C32.7111 13.2882 34 16.4936 34 20C34 27.732 27.732 34 20 34C12.268 34 6 27.732 6 20C6 12.268 12.268 6 20 6ZM19 9.75C13.3391 9.75 8.75 14.3391 8.75 20C8.75 25.6609 13.3391 30.25 19 30.25C19.6904 30.25 20.25 29.6904 20.25 29C20.25 28.3096 19.6904 27.75 19 27.75C14.7198 27.75 11.25 24.2802 11.25 20C11.25 15.7198 14.7198 12.25 19 12.25C19.6904 12.25 20.25 11.6904 20.25 11C20.25 10.3096 19.6904 9.75 19 9.75ZM27.3838 12.6162C26.8956 12.1281 26.1044 12.1281 25.6162 12.6162L19.1162 19.1162C18.6281 19.6044 18.6281 20.3956 19.1162 20.8838C19.6044 21.3719 20.3956 21.3719 20.8838 20.8838L27.3838 14.3838C27.8719 13.8956 27.8719 13.1044 27.3838 12.6162Z" fill="#A9B6C3"/>
</svg>

