<svg width="64" height="64" viewBox="0 0 64 64" fill="none" xmlns="http://www.w3.org/2000/svg">
<path d="M51 24.4025C51 33.5536 37.4252 51.8102 33.2241 57.2411C32.5997 58.0483 31.4003 58.0483 30.7759 57.2412C26.5748 51.8102 13 33.5536 13 24.4025C13 13.5763 21.5066 4.7998 32 4.7998C42.4934 4.7998 51 13.5763 51 24.4025Z" fill="#B8E0FF"/>
<path d="M38.2317 23.84C39.3725 23.9467 40.249 24.3429 40.8612 25.0286C41.4873 25.699 41.8003 26.5829 41.8003 27.68C41.8003 29.0514 41.362 30.1181 40.4855 30.88C39.6229 31.6267 38.2595 32 36.3952 32L25.2302 32L25.2302 16L36.4578 16C38.0717 16 39.2751 16.3505 40.0682 17.0514C40.8751 17.7524 41.2786 18.6971 41.2786 19.8857C41.2786 20.861 41.0073 21.6686 40.4647 22.3086C39.936 22.9333 39.1916 23.299 38.2317 23.4057L38.2317 23.84ZM28.8405 19.1314L28.8405 22.4914L35.6439 22.4914C36.27 22.4914 36.743 22.339 37.063 22.0343C37.3969 21.7295 37.5638 21.3257 37.5638 20.8229C37.5638 20.3048 37.3969 19.8933 37.063 19.5886C36.743 19.2838 36.27 19.1314 35.6439 19.1314L28.8405 19.1314ZM35.9987 28.8686C36.6943 28.8686 37.216 28.7162 37.5638 28.4114C37.9117 28.0914 38.0856 27.6495 38.0856 27.0857C38.0856 26.5219 37.9117 26.08 37.5638 25.76C37.216 25.44 36.6943 25.28 35.9987 25.28L28.8405 25.28L28.8405 28.8686L35.9987 28.8686Z" fill="#0183E0"/>
<path d="M21.8003 28.3441L21.8003 25.6502L27.4211 25.6502L27.4211 28.3441L21.8003 28.3441Z" fill="#0183E0"/>
<path d="M21.8003 21.9944L21.8003 19.3004L27.4211 19.3004L27.4211 21.9944L21.8003 21.9944Z" fill="#0183E0"/>
</svg>
