<svg width="28" height="28" viewBox="0 0 28 28" fill="none" xmlns="http://www.w3.org/2000/svg">
<path d="M22.2565 15.0769C22.8533 15.0769 23.3334 14.5968 23.3334 14C23.3334 13.4077 22.8533 12.9231 22.2565 12.9231H15.077V5.74359C15.077 5.1468 14.5969 4.66667 14.0001 4.66667C13.4078 4.66667 12.9232 5.1468 12.9232 5.74359V12.9231H5.74367C5.14912 12.9231 4.66675 13.4077 4.66675 14.0005C4.66675 14.595 5.14912 15.0769 5.74367 15.0769H12.9232L12.9232 22.2564C12.9232 22.851 13.4078 23.3333 14.0005 23.3333C14.5951 23.3333 15.077 22.851 15.077 22.2564L15.077 15.0769H22.2565Z" fill="#E2F3FF"/>
</svg>
