<svg width="28" height="28" viewBox="0 0 28 28" fill="none" xmlns="http://www.w3.org/2000/svg">
<g clip-path="url(#clip0_6487_5490)">
<path d="M21.0089 0H6.99107C3.13001 0 0 3.13001 0 6.99107V21.0089C0 24.87 3.13001 28 6.99107 28H21.0089C24.87 28 28 24.87 28 21.0089V6.99107C28 3.13001 24.87 0 21.0089 0Z" fill="url(#paint0_linear_6487_5490)"/>
<path fill-rule="evenodd" clip-rule="evenodd" d="M14.231 24.5929C12.1308 24.5929 11.1548 24.2863 9.45829 23.0599C8.38519 24.4396 4.98708 25.5178 4.83888 23.6731C4.83888 22.2883 4.53228 21.1181 4.1848 19.8406C3.7709 18.2668 3.30078 16.514 3.30078 13.9744C3.30078 7.90889 8.27789 3.3457 14.1748 3.3457C20.0768 3.3457 24.7013 8.13373 24.7013 14.0306C24.7211 19.8363 20.0366 24.5619 14.231 24.5929ZM14.3179 8.58851C11.4461 8.44033 9.20789 10.4281 8.71223 13.5452C8.30343 16.1257 9.02905 19.2683 9.64735 19.4318C9.94373 19.5034 10.6898 18.9004 11.1548 18.4354C11.9237 18.9666 12.8191 19.2856 13.7507 19.3603C16.7263 19.5034 19.2689 17.2381 19.4687 14.2657C19.585 11.287 17.2939 8.7641 14.3179 8.59363V8.58851Z" fill="white"/>
</g>
<defs>
<linearGradient id="paint0_linear_6487_5490" x1="3.29972" y1="21.295" x2="28" y2="14" gradientUnits="userSpaceOnUse">
<stop stop-color="#44CCFF"/>
<stop offset="0.662" stop-color="#5533EE"/>
<stop offset="1" stop-color="#9933DD"/>
</linearGradient>
<clipPath id="clip0_6487_5490">
<rect width="28" height="28" fill="white"/>
</clipPath>
</defs>
</svg>
