<svg width="28" height="28" viewBox="0 0 28 28" fill="none" xmlns="http://www.w3.org/2000/svg">
<g clip-path="url(#clip0_6487_1532)">
<path d="M14 0C10.2878 0 6.72437 1.47591 4.10156 4.10047C1.47606 6.72609 0.000751294 10.2869 0 14C0 17.7115 1.47656 21.275 4.10156 23.8995C6.72437 26.5241 10.2878 28 14 28C17.7122 28 21.2756 26.5241 23.8984 23.8995C26.5234 21.275 28 17.7115 28 14C28 10.2885 26.5234 6.72503 23.8984 4.10047C21.2756 1.47591 17.7122 0 14 0Z" fill="url(#paint0_linear_6487_1532)"/>
<path d="M6.33406 13.8521C10.4159 12.0741 13.1372 10.9018 14.4978 10.3354C18.3872 8.71821 19.1944 8.43733 19.7216 8.42782C19.8375 8.42596 20.0956 8.45461 20.2641 8.59079C20.4041 8.70563 20.4434 8.86094 20.4631 8.96999C20.4806 9.07893 20.5047 9.32721 20.485 9.52102C20.275 11.7348 19.3628 17.1068 18.8991 19.5864C18.7044 20.6355 18.3172 20.9872 17.9431 21.0216C17.1294 21.0964 16.5125 20.4843 15.725 19.9683C14.4934 19.1605 13.7978 18.6578 12.6012 17.8696C11.2187 16.9587 12.1156 16.458 12.9031 15.6399C13.1087 15.4257 16.6919 12.1675 16.7597 11.8719C16.7684 11.835 16.7772 11.6971 16.6941 11.6245C16.6131 11.5517 16.4928 11.5766 16.4053 11.5963C16.2806 11.6243 14.3141 12.9254 10.4991 15.4995C9.94125 15.8831 9.43593 16.0702 8.98093 16.0603C8.48218 16.0496 7.51968 15.7777 6.80437 15.5454C5.92937 15.2604 5.23156 15.1096 5.29281 14.6256C5.32343 14.3736 5.67125 14.1156 6.33406 13.8521Z" fill="white"/>
</g>
<defs>
<linearGradient id="paint0_linear_6487_1532" x1="14" y1="0" x2="14" y2="28" gradientUnits="userSpaceOnUse">
<stop stop-color="#2AABEE"/>
<stop offset="1" stop-color="#229ED9"/>
</linearGradient>
<clipPath id="clip0_6487_1532">
<rect width="28" height="28" fill="white"/>
</clipPath>
</defs>
</svg>
