<svg width="74" height="55" viewBox="0 0 74 55" fill="none" xmlns="http://www.w3.org/2000/svg">
<g clip-path="url(#clip0_4486_16403)">
<path fill-rule="evenodd" clip-rule="evenodd" d="M36.0235 3.67832C37.1299 3.53597 37.9407 4.27838 38.6495 5.01132C39.6224 6.01746 40.6215 7.00143 41.6134 7.98886L49.7159 16.0904L55.9356 22.3141C57.0982 23.4718 58.2843 24.6152 59.4181 25.8004C61.4001 27.873 59.0066 29.6018 57.6065 30.9928L55.0499 33.5465L45.8487 42.7506L40.838 47.7594C39.8961 48.706 38.9415 49.6859 37.9737 50.6061C37.6012 50.96 37.1525 51.1296 36.6739 51.2857C36.2157 51.3572 35.7735 51.2489 35.3624 51.0416C34.49 50.6017 31.3584 47.2669 30.4962 46.4059L22.8604 38.7721L16.7354 32.6441C15.5875 31.5008 14.4286 30.3679 13.3018 29.2027C12.2864 28.1525 12.2663 26.8597 13.2755 25.8004C14.335 24.6883 15.4381 23.6219 16.5225 22.5367L24.0548 15.0025L31.0802 7.9791C32.2725 6.78559 33.478 5.55495 34.6915 4.38144C35.0824 4.00345 35.5169 3.8343 36.0235 3.67832ZM36.3409 11.7027C35.4816 12.5961 34.6122 13.4807 33.7335 14.3551C29.7225 13.5317 27.2059 16.4215 27.8331 20.2799C27.0235 21.1233 26.2047 21.958 25.377 22.7838C25.0022 23.1622 24.3122 23.8987 23.9259 24.2262C22.875 24.0736 21.8068 24.0802 20.7579 24.2457C20.7168 27.386 20.4791 30.5313 20.4161 33.6646C21.6613 33.8522 22.2421 33.8415 23.502 33.6725C23.5079 33.1182 23.5232 32.5222 23.5089 31.9713C24.1851 32.107 24.6758 32.0935 25.3165 32.191C25.7459 32.5122 26.3832 33.198 26.7784 33.6002L28.9972 35.8453C31.3595 38.2193 34.0952 40.8493 36.3468 43.2887C37.229 42.3515 38.1279 41.43 39.0431 40.525L43.4757 36.0562C43.7339 35.7969 45.398 34.0664 45.6065 34.0084C46.5833 33.7371 47.4057 33.6884 48.4229 33.2838C48.3188 32.6855 48.2608 32.0063 48.0528 31.4547C48.2628 31.2299 48.7984 30.581 49.0587 30.565C49.5404 30.8387 49.3805 33.109 49.3927 33.6754C50.6266 33.8449 51.2972 33.8406 52.545 33.6734C52.5396 32.922 52.4419 32.0276 52.5763 31.2926C52.7268 30.4712 54.5886 27.5357 55.1212 26.6178C54.3051 26.4996 52.5127 26.1855 51.7384 26.6383C51.6837 26.6706 51.4967 26.9052 51.4366 26.9732C49.9274 25.3004 48.1991 23.7655 46.6915 22.0895C46.4154 21.7824 46.2232 21.3301 46.0089 20.9762C46.461 20.2118 46.8174 19.4213 46.5343 18.524C45.7453 16.0234 43.1078 16.6959 41.2725 16.6764C40.0862 15.5369 38.9456 14.3011 37.7755 13.1441C37.4529 12.8252 36.6398 11.9426 36.3409 11.7027Z" fill="#6E7C89"/>
<path d="M36.3384 11.7031C36.6374 11.9431 37.4504 12.8256 37.7729 13.1445C38.943 14.3014 40.0838 15.5364 41.27 16.6758C43.1051 16.6954 45.7425 16.0233 46.5317 18.5234C46.8149 19.4207 46.4595 20.2122 46.0073 20.9766C46.2216 21.3305 46.4139 21.7819 46.6899 22.0889C48.1975 23.7648 49.9249 25.2999 51.4341 26.9727C51.4943 26.9046 51.6812 26.67 51.7358 26.6377C52.5103 26.1848 54.3037 26.4991 55.1196 26.6172C54.5872 27.5349 52.7238 30.4721 52.5737 31.293C52.4395 32.0279 52.5381 32.9216 52.5435 33.6729C51.2954 33.84 50.6243 33.8454 49.3901 33.6758C49.3779 33.1098 49.5386 30.8386 49.0571 30.5645C48.797 30.5801 48.2604 31.2291 48.0503 31.4541C48.2584 32.0059 48.3163 32.6858 48.4204 33.2842C47.4033 33.6887 46.5808 33.7375 45.604 34.0088C45.3941 34.0685 43.7312 35.7964 43.4731 36.0557L39.0415 40.5244C38.1262 41.4296 37.2266 42.3517 36.3442 43.2891C34.0927 40.8498 31.358 38.2196 28.9956 35.8457L26.7759 33.5996C26.3807 33.1974 25.7433 32.5125 25.314 32.1914C24.6732 32.0939 24.1825 32.1074 23.5063 31.9717C23.5207 32.5224 23.5063 33.1178 23.5005 33.6719C22.2403 33.8409 21.659 33.8516 20.4136 33.6641C20.4766 30.5309 20.7143 27.3862 20.7554 24.2461C21.8043 24.0805 22.8725 24.074 23.9233 24.2266C24.3096 23.8993 25.0005 23.1627 25.3755 22.7842C26.2032 21.9584 27.0219 21.1228 27.8315 20.2793C27.2045 16.4211 29.7201 13.5321 33.731 14.3555C34.6097 13.481 35.479 12.5966 36.3384 11.7031ZM35.7095 30.3936C35.8504 28.2446 34.4696 26.771 32.2837 27.0303C31.6954 27.1158 31.2193 27.2647 30.7573 27.6504C29.4112 28.7745 29.4111 31.6444 30.8608 32.6885C31.5052 33.1523 32.4191 33.3344 33.1978 33.2148C34.8035 32.9341 35.6012 32.043 35.7095 30.3936ZM47.8481 28.6807C47.4013 27.3537 46.2987 26.8874 44.9849 27.0293C42.9878 27.3189 42.2737 29.0235 42.5405 30.8721C42.8496 33.0103 44.8482 33.4637 46.6851 33.1377C47.0452 33.0727 47.4009 32.9814 47.7476 32.8643C47.6991 32.6698 47.5883 32.07 47.5229 31.9141L47.3481 31.3838C46.1237 31.7075 44.879 32.1324 44.2983 30.6816L47.9858 30.6777C48.0279 29.9505 48.0858 29.3871 47.8481 28.6807ZM54.1147 27.1025C53.4998 27.0652 52.7428 27.0179 52.1421 27.125C51.7573 27.8005 51.3179 28.5423 50.9585 29.2256C50.6378 28.539 50.0725 27.7497 49.7983 27.1338C48.9276 26.9947 48.5638 27.1325 47.8462 27.084C47.9721 27.4061 48.4829 28.2564 48.6841 28.5928C49.1391 29.3534 49.5788 30.1783 50.0386 30.9287L50.0396 33.1113C50.7449 33.1767 51.1927 33.1834 51.8999 33.1133C51.9001 32.5732 51.9267 31.4707 51.8794 30.9697L52.6802 29.5459C53.159 28.7538 53.621 27.8629 54.1147 27.1025ZM21.4106 24.7861L21.0679 33.1172C21.7664 33.1601 22.1734 33.1805 22.8638 33.1123L22.9458 29.9453C22.9579 29.406 22.9515 28.5533 23.0044 28.0449C23.3944 29.1821 23.8638 30.3422 24.2368 31.4668C24.7759 31.5033 25.1649 31.51 25.7075 31.4697C26.1408 30.3863 26.6263 29.084 27.0864 28.0283C27.1147 28.7855 27.1386 29.5433 27.1577 30.3008C27.2013 31.234 27.2014 32.1888 27.2573 33.1113C27.994 33.1694 28.4205 33.1659 29.1567 33.1152C29.0573 31.8301 29.0153 30.4911 28.9604 29.1973C28.9011 27.7962 28.7647 26.2017 28.7769 24.8086C28.0686 24.7394 27.5827 24.7406 26.8706 24.7852C26.5194 25.7817 26.0955 26.7619 25.7173 27.748C25.5374 28.217 25.2629 28.83 25.146 29.3096C24.5634 27.9631 23.911 26.1926 23.4146 24.8008C23.0143 24.7698 22.6644 24.7467 22.2632 24.7402L21.4106 24.7861ZM41.6646 28.7871C41.4654 27.4058 39.8199 26.9126 38.5659 27.0361C37.826 27.0904 37.2082 27.1983 36.4819 27.3584C36.5009 29.1846 36.5274 31.2976 36.481 33.1172C37.196 33.1686 37.6601 33.1662 38.3765 33.1152C38.3669 31.7689 38.3122 29.9599 38.3794 28.6436C38.8105 28.6038 39.1714 28.5539 39.5591 28.8057C39.9694 29.3579 39.8899 29.9356 39.897 30.5938C39.906 31.4343 39.8782 32.2787 39.8843 33.1191C40.5915 33.1634 41.0407 33.1641 41.7476 33.1191C41.7565 31.776 41.8547 30.1065 41.6646 28.7871ZM32.3696 28.4893C33.5277 28.3517 33.8659 29.1405 33.8716 30.1904C33.8751 30.8455 33.7062 31.4254 33.0903 31.7451C31.3384 32.2042 31.1729 29.2169 32.3696 28.4893ZM45.2017 28.3896C46.0565 28.4095 46.1379 28.72 46.4116 29.4395C46.133 29.4661 45.725 29.4599 45.436 29.4639L44.2847 29.458C44.4666 28.9133 44.6065 28.538 45.2017 28.3896ZM32.2056 14.8652C29.3785 15.0559 28.2863 17.0652 28.4126 19.6611C28.5364 22.2056 30.4391 23.6603 32.8989 23.4316C33.2254 23.399 34.3873 23.2439 34.5981 23.0342C34.6033 22.9396 34.6139 22.9114 34.5757 22.8252C34.4382 22.2366 34.3221 21.9556 34.1421 21.4004C33.4931 21.7088 32.4691 21.8399 31.7935 21.5996C30.3744 21.0949 30.2496 19.0532 30.6851 17.8379C31.1866 16.4383 32.7355 16.3409 33.9282 16.8447C33.9662 16.8608 34.0039 16.8776 34.0415 16.8945C34.2631 16.2789 34.4107 15.8861 34.5044 15.2383C33.5835 14.9242 33.184 14.8848 32.2056 14.8652ZM39.9966 18.915C39.8132 17.5247 38.0712 16.9963 36.8882 17.2666C36.3958 17.3323 35.8667 17.4316 35.3911 17.5762C35.4484 17.913 35.5286 18.625 35.7485 18.8672C36.1527 19.0391 37.8648 18.0235 38.4028 19.3457C38.4225 19.3937 38.4413 19.4424 38.4585 19.4912C37.0124 19.5189 34.9181 19.5247 35.0229 21.5156C35.0537 22.0987 35.169 22.4652 35.6089 22.8662C35.6334 22.8885 35.6591 22.9108 35.6841 22.9326C37.1193 23.8703 38.6268 23.2955 40.0962 23.1162C40.0911 21.7517 40.173 20.2564 39.9966 18.915ZM42.9946 17.2188C42.2911 17.248 41.6697 17.2978 40.9692 17.3633C40.9099 19.1149 40.907 21.5855 40.9546 23.3457C41.5733 23.372 42.1933 23.3721 42.812 23.3467C42.8114 21.8065 42.7887 20.2102 42.813 18.6748C43.2157 18.6826 43.5923 18.6464 43.8804 18.9766C44.2759 19.4299 43.9187 19.9898 43.5854 20.3271C43.4151 20.4467 43.2988 20.5296 43.1138 20.627C43.3771 21.0141 44.2247 22.8352 44.4097 23.3174C45.1178 23.4059 45.8246 23.372 46.5356 23.3408C46.1093 22.5205 45.6497 21.5815 45.2036 20.7832C45.6654 20.3661 45.9791 19.894 45.9907 19.2568C46.018 17.7544 44.6188 17.247 43.3784 17.2197C43.2507 17.2172 43.1224 17.2164 42.9946 17.2188ZM38.3823 20.6377C38.3932 21.0967 38.3836 21.5845 38.3823 22.0459L37.6255 22.0781C36.4095 22.0386 36.193 20.952 37.4146 20.6543C37.7317 20.6308 38.0633 20.6372 38.3823 20.6377Z" fill="#E6F4FF"/>
</g>
<defs>
<clipPath id="clip0_4486_16403">
<rect width="47.6276" height="47.8365" fill="white" transform="translate(12.6838 3.56543)"/>
</clipPath>
</defs>
</svg>
