<svg width="19" height="19" viewBox="0 0 19 19" fill="none" xmlns="http://www.w3.org/2000/svg">
<path fill-rule="evenodd" clip-rule="evenodd" d="M9.02624 0.751953C10.3649 0.752511 11.6741 1.1495 12.787 1.89355C13.8998 2.63761 14.7671 3.69578 15.2792 4.93262C15.791 6.16928 15.9251 7.53008 15.6639 8.84277C15.4027 10.1557 14.7579 11.362 13.8114 12.3086C12.5863 13.5337 9.70379 15.3042 9.53308 17.167C9.5081 17.4451 9.30436 17.6729 9.02624 17.6729C8.74834 17.6726 8.5461 17.4449 8.52038 17.167C8.34967 15.3042 5.46494 13.5305 4.23913 12.3047C3.29374 11.3577 2.64992 10.1514 2.38952 8.83887C2.12921 7.5264 2.264 6.16579 2.77624 4.92969C3.28854 3.69363 4.15604 2.63712 5.26843 1.89355C6.38075 1.15009 7.68833 0.752741 9.02624 0.751953ZM9.03112 5.20312C8.72705 5.20312 8.42534 5.26254 8.14441 5.37891C7.86359 5.49523 7.60839 5.66596 7.39343 5.88086C7.17841 6.09587 7.00784 6.35188 6.89148 6.63281C6.77519 6.91364 6.7157 7.2146 6.71569 7.51855C6.71569 7.82249 6.77522 8.12348 6.89148 8.4043C7.00784 8.68523 7.17841 8.94124 7.39343 9.15625C7.60839 9.37117 7.86358 9.54186 8.14441 9.6582C8.42534 9.77457 8.72705 9.83398 9.03112 9.83398C9.64498 9.83389 10.2337 9.59024 10.6678 9.15625C11.1021 8.72201 11.3466 8.13267 11.3466 7.51855C11.3465 6.90447 11.1021 6.31508 10.6678 5.88086C10.2337 5.44692 9.64494 5.20322 9.03112 5.20312Z" fill="#FF4433"/>
</svg>
