<svg width="117" height="55" viewBox="0 0 117 55" fill="none" xmlns="http://www.w3.org/2000/svg">
<g clip-path="url(#clip0_4486_16400)">
<path d="M48.9397 32.2527C48.4705 32.6151 47.945 32.8132 47.3818 32.8132C46.2371 32.8132 45.444 31.9918 45.444 30.8323C45.444 29.6726 46.2464 28.8803 47.3866 28.8803C47.945 28.8803 48.4705 29.0639 48.9442 29.4165L49.9249 27.7496C49.2256 27.1505 48.1373 26.7495 47.0301 26.7495C44.8342 26.7495 43.042 28.3004 43.042 30.8902C43.042 33.6056 45.0172 34.9439 47.0158 34.9439C48.1842 34.9439 49.2632 34.4849 50.0611 33.823L48.9397 32.2527Z" fill="#6E7C89"/>
<path d="M58.218 33.1997C57.8097 32.9533 57.6877 32.6972 57.6877 32.016V29.6243C57.6877 27.7111 56.5055 26.7495 54.4176 26.7495C53.3337 26.7495 52.1092 27.0104 51.1709 27.6724L51.8607 29.2378C52.4281 28.9189 53.2073 28.7015 53.9203 28.7015C54.7415 28.7015 55.3184 28.9914 55.3184 29.7113V29.9481C54.9667 29.8659 54.46 29.7934 53.9343 29.7934C51.9451 29.7934 50.6736 30.8323 50.6736 32.4025C50.6736 33.9631 51.9263 34.9439 53.3949 34.9439C54.1361 34.9439 55.0463 34.6927 55.553 33.9099C55.783 34.6347 56.6744 34.9246 57.9459 34.9246L58.218 33.1997ZM55.3184 31.5039V31.8566C55.3184 32.6441 54.6008 33.0548 53.9203 33.0548C53.4276 33.0548 52.9397 32.8374 52.9397 32.2576C52.9397 31.6923 53.3994 31.3782 54.2908 31.3782C54.6803 31.3782 55.0699 31.441 55.3184 31.5039Z" fill="#6E7C89"/>
<path d="M60.0618 32.2672L59.0811 33.6201C59.9728 34.369 60.8405 34.9439 62.3515 34.9439C64.1905 34.9439 65.5045 34.0984 65.5045 32.359C65.5045 29.3876 61.6666 30.3684 61.6666 29.1605C61.6666 28.8175 61.9713 28.5952 62.5249 28.5952C63.0271 28.5952 63.7356 28.7836 64.4345 29.204L65.2463 27.8125C64.5801 27.223 63.5807 26.7495 62.3233 26.7495C60.7046 26.7495 59.3344 27.5274 59.3344 29.3248C59.3344 32.3107 63.1209 31.2284 63.1209 32.4508C63.1209 32.8325 62.7549 33.0258 62.1638 33.0258C61.4128 33.0258 60.7328 32.7166 60.0618 32.2672Z" fill="#6E7C89"/>
<path d="M74.0671 34.7851V29.9824C74.0671 28.0304 73.1663 26.75 71.28 26.75C70.5061 26.75 69.7507 26.9723 69.2252 27.5231V23.0684L66.8323 23.4839V34.7851H69.2345V30.2868C69.2345 29.4606 69.7457 28.9339 70.5388 28.9339C71.2943 28.9339 71.6696 29.4075 71.6696 30.1901V34.7851H74.0671Z" fill="#6E7C89"/>
<path d="M82.0379 34.7851H83.0328V23.0684L81.8597 23.3148V28.1077H81.8502C81.2547 27.2139 80.2646 26.75 79.1856 26.75C77.1961 26.75 75.5259 28.2914 75.5259 30.8907C75.5259 33.5674 77.2947 34.9445 79.148 34.9445C80.2927 34.9445 81.2547 34.4275 81.9114 33.4853L82.0379 34.7851ZM79.3026 33.8622C77.7872 33.8622 76.7081 32.6929 76.7081 30.8665C76.7081 29.0693 77.7638 27.8371 79.3121 27.8371C80.8043 27.8371 81.9021 28.9822 81.9021 30.8134C81.9021 32.5624 80.8932 33.8622 79.3026 33.8622Z" fill="#6E7C89"/>
<path d="M85.3145 34.7845H86.4827V30.8757C86.4827 29.2812 87.1021 27.8656 88.6644 27.8656C88.9365 27.8656 89.1947 27.9091 89.4481 27.9864L89.6263 26.8703C89.34 26.7882 89.0258 26.7495 88.7162 26.7495C87.6511 26.7495 86.9474 27.2327 86.4501 28.1893H86.4407L86.3093 26.909H85.3145V34.7845Z" fill="#6E7C89"/>
<path d="M91.4181 25.1792C91.873 25.1792 92.2439 24.7976 92.2439 24.3289C92.2439 23.8602 91.873 23.4785 91.4181 23.4785C90.9628 23.4785 90.592 23.8602 90.592 24.3289C90.592 24.7976 90.9628 25.1792 91.4181 25.1792ZM90.8315 34.7845H91.9996V26.909H90.8315V34.7845Z" fill="#6E7C89"/>
<path d="M94.8133 26.9092H93.5417L96.526 34.7847H97.7459L100.843 26.9092H99.6418L97.1733 33.4463L94.8133 26.9092Z" fill="#6E7C89"/>
<path d="M108.311 33.9245L107.758 33.1369C107.101 33.6056 106.322 33.8858 105.492 33.8858C103.901 33.8858 102.859 32.8663 102.737 31.2284H108.875C108.888 31.1173 108.908 30.8902 108.908 30.6631C108.908 28.4696 107.51 26.7495 105.328 26.7495C103.221 26.7495 101.551 28.3585 101.551 30.9047C101.551 33.5138 103.301 34.9439 105.436 34.9439C106.533 34.9439 107.575 34.567 108.311 33.9245ZM102.761 30.291C102.907 28.8609 103.925 27.8077 105.337 27.8077C106.829 27.8077 107.679 28.9865 107.74 30.291H102.761Z" fill="#6E7C89"/>
<path fill-rule="evenodd" clip-rule="evenodd" d="M29.0124 17.3052C29.6823 17.3052 30.3298 17.5703 30.7987 18.0342L37.006 24.1758C37.9884 25.1478 37.9884 26.7384 37.006 27.7105L24.2564 40.325C23.7876 40.7889 23.1401 41.054 22.4702 41.054C21.8004 41.054 21.1528 40.7889 20.6839 40.325L14.4766 34.1835C13.4941 33.2114 13.4941 31.6208 14.4766 30.6487L27.2261 18.0342C27.695 17.5703 28.3426 17.3052 29.0124 17.3052ZM32.8752 23.8002C32.7412 23.8002 32.5849 23.756 32.4733 23.6456L30.0172 21.2155C29.7939 20.9945 29.7939 20.6411 30.0172 20.4422C30.2404 20.2213 30.5977 20.2213 30.7987 20.4422L33.2548 22.8724C33.478 23.0933 33.478 23.4467 33.2548 23.6456C33.1654 23.7339 33.0092 23.8002 32.8752 23.8002ZM34.4381 24.2421C34.4381 24.5471 34.1882 24.7944 33.88 24.7944C33.5717 24.7944 33.3218 24.5471 33.3218 24.2421C33.3218 23.937 33.5717 23.6898 33.88 23.6898C34.1882 23.6898 34.4381 23.937 34.4381 24.2421Z" fill="#E6F4FF"/>
<path d="M9.11998 27.8875L12.7529 31.4819C12.9143 30.8944 13.2291 30.3388 13.6972 29.8756L18.8399 24.7785C17.2202 24.5082 15.5016 23.7429 14.9923 23.3364L15.7067 22.4748C16.2873 22.9388 19.19 24.0875 20.552 23.6899L20.9316 23.5794L21.1549 23.8887C23.0081 26.3409 26.8486 26.4293 27.7418 26.1421C27.9204 26.0758 27.9651 25.9433 27.9874 25.877C28.0098 25.8108 28.0321 25.6561 27.8757 25.5015L22.9821 20.6708L22.9443 20.6342L19.7036 17.4159C19.1008 16.8194 18.3193 16.5322 17.5155 16.5322C16.734 16.5322 15.9302 16.8194 15.3273 17.4159L9.11998 23.5796C7.93657 24.7725 7.93657 26.6945 9.11998 27.8875Z" fill="#E6F4FF"/>
<path d="M20.5036 24.8634C20.4968 24.8552 20.4899 24.8471 20.483 24.8389C20.479 24.8394 20.475 24.84 20.4709 24.8405C20.4818 24.8481 20.4927 24.8557 20.5036 24.8634Z" fill="#F9A056"/>
<path d="M20.9081 37.4537C21.1537 37.2107 21.4663 37.0781 21.8012 37.0781C22.1361 37.0781 22.4487 37.1886 22.6943 37.4537L24.3466 39.0885C24.8379 39.5745 24.8379 40.3698 24.3466 40.8558L24.0787 41.121C23.5875 41.607 22.7836 41.607 22.2924 41.121L20.6401 39.4862C20.1489 39.0001 20.1489 38.2048 20.6401 37.7188L20.9081 37.4537Z" fill="#E6F4FF"/>
<path d="M23.79 34.2495C23.4104 34.2495 23.0532 34.3821 22.7629 34.6692C22.2047 35.2216 22.2047 36.1494 22.7629 36.7018L24.9957 38.9109C25.554 39.4632 26.4918 39.4632 27.0499 38.9109C27.6082 38.3586 27.6082 37.4308 27.0499 36.8785L24.8172 34.6692C24.5269 34.4042 24.1696 34.2495 23.79 34.2495Z" fill="#E6F4FF"/>
<path d="M25.1003 31.6869C25.3906 31.3997 25.7478 31.2671 26.1274 31.2671C26.507 31.2671 26.8865 31.4217 27.1545 31.6869L29.9008 34.4042C30.4591 34.9565 30.4591 35.8843 29.9008 36.4367C29.3427 36.9889 28.4049 36.9889 27.8467 36.4367L25.1003 33.7193C24.5421 33.167 24.5421 32.2391 25.1003 31.6869Z" fill="#E6F4FF"/>
<path d="M29.0981 29.3452C28.7186 29.3452 28.3613 29.4778 28.071 29.7649C27.5128 30.3173 27.5128 31.2451 28.071 31.7975L30.3039 34.0066C30.862 34.5589 31.7998 34.5589 32.3581 34.0066C32.9163 33.4543 32.9163 32.5265 32.3581 31.9742L30.1252 29.7649C29.8349 29.4999 29.4777 29.3452 29.0981 29.3452Z" fill="#E6F4FF"/>
<path d="M32.4705 23.6464C32.5821 23.7568 32.7385 23.801 32.8724 23.801C33.0065 23.801 33.1627 23.7347 33.252 23.6464C33.4753 23.4475 33.4753 23.0941 33.252 22.8731L30.7959 20.443C30.5949 20.2221 30.2377 20.2221 30.0144 20.443C29.7911 20.6419 29.7911 20.9953 30.0144 21.2163L32.4705 23.6464Z" fill="#6E7C89"/>
<path d="M34.438 24.2427C34.438 24.5477 34.1881 24.795 33.8798 24.795C33.5714 24.795 33.3215 24.5477 33.3215 24.2427C33.3215 23.9377 33.5714 23.6904 33.8798 23.6904C34.1881 23.6904 34.438 23.9377 34.438 24.2427Z" fill="#6E7C89"/>
<path fill-rule="evenodd" clip-rule="evenodd" d="M8.3365 28.6612L12.6616 32.9485C12.771 33.6905 13.1156 34.4058 13.6952 34.9793L19.9025 41.1209C20.4299 41.6427 21.0789 41.9719 21.7508 42.1086C22.1673 42.4263 22.6837 42.579 23.1847 42.579C23.7876 42.579 24.4128 42.3359 24.8818 41.8941L25.1496 41.629C25.4969 41.2854 25.7156 40.8661 25.8057 40.4271C25.8774 40.433 25.9491 40.436 26.0205 40.436C26.6903 40.436 27.3378 40.193 27.8514 39.6849C28.3376 39.2038 28.5885 38.5778 28.6042 37.9472C28.6957 37.9569 28.7873 37.9618 28.8785 37.9618C29.5483 37.9618 30.1958 37.7187 30.7094 37.2327C31.187 36.7602 31.4375 36.1479 31.4611 35.5287C32.0857 35.4999 32.6845 35.2566 33.1657 34.7805C33.8181 34.135 34.0469 33.2286 33.852 32.4002L37.7876 28.5064C39.2166 27.0924 39.2166 24.817 37.7876 23.4031L31.5803 17.2616C30.8881 16.5546 29.9503 16.2011 29.0125 16.2011C28.0747 16.2011 27.1593 16.5546 26.4447 17.2616L23.7763 19.9017L20.4832 16.6431C18.8532 15.0304 16.1738 15.0304 14.5438 16.6431L8.3365 22.7847C6.70652 24.3974 6.70652 27.0484 8.3365 28.6612ZM22.9812 20.6723L19.7017 17.4163C19.0988 16.8199 18.3173 16.5327 17.5135 16.5327C16.732 16.5327 15.9282 16.8199 15.3253 17.4163L9.11799 23.58C7.93458 24.773 7.93458 26.6949 9.11799 27.888L12.7509 31.4824C12.9123 30.8948 13.2271 30.3392 13.6952 29.876L18.8456 24.7802C17.2237 24.5111 15.5004 23.7439 14.9902 23.3369L15.7048 22.4753C16.2002 22.8712 18.3871 23.766 19.8641 23.7725C20.1177 23.7737 20.3504 23.7486 20.55 23.6903L20.9296 23.5799L21.1529 23.8892C21.164 23.9039 21.1752 23.9185 21.1865 23.9331C21.1978 23.9476 21.2092 23.9622 21.2207 23.9767C23.0982 26.3434 26.8574 26.4263 27.7398 26.1425C27.9184 26.0763 27.9631 25.9437 27.9854 25.8774C28.0077 25.8112 28.03 25.6565 27.8738 25.5019L22.9812 20.6723ZM24.5579 20.6749L28.6552 24.7287C29.0348 25.1042 29.1688 25.6123 29.0571 26.1205C28.9455 26.6286 28.566 27.0262 28.0747 27.1808C27.7844 27.3134 27.2486 27.3797 26.6234 27.3797C24.8371 27.3797 22.1353 26.8053 20.483 24.8391C20.4331 24.8462 20.3822 24.8522 20.3308 24.8572L14.4767 30.6492C13.4943 31.6213 13.4943 33.2119 14.4767 34.184L19.1661 38.8238C19.0979 38.1468 19.3285 37.4471 19.8578 36.9234L20.1258 36.6583C20.4494 36.3381 20.8396 36.1284 21.2503 36.0292C21.1425 35.2652 21.3854 34.462 21.979 33.8747C22.4321 33.4264 23.0124 33.1802 23.6052 33.1363C23.473 32.3524 23.7124 31.519 24.3235 30.9144C24.9432 30.3013 25.8006 30.0663 26.6026 30.2095C26.7058 29.7553 26.9361 29.3237 27.2933 28.9703C28.2981 27.9762 29.928 27.9762 30.9328 28.9703L33.1657 31.1795C33.2221 31.2353 33.2754 31.2932 33.3255 31.3526L37.0061 27.711C37.9886 26.739 37.9886 25.1484 37.0061 24.1763L30.7988 18.0348C30.3299 17.5708 29.6823 17.3057 29.0125 17.3057C28.3427 17.3057 27.6951 17.5708 27.2263 18.0348L24.5579 20.6749ZM22.2917 41.1209C22.7829 41.6069 23.5867 41.6069 24.0779 41.1209L24.3459 40.8558C24.5642 40.6398 24.6854 40.3628 24.7097 40.0789C24.5307 39.9722 24.3629 39.8411 24.2119 39.6849L21.979 37.4757C21.8564 37.3544 21.7488 37.2239 21.656 37.0863C21.3761 37.1188 21.1172 37.2459 20.9073 37.4537L20.6394 37.7187C20.1481 38.2047 20.1481 39.0001 20.6394 39.4861L22.2917 41.1209ZM25.4016 39.1927C25.9398 39.4381 26.6102 39.3444 27.0476 38.9117C27.426 38.5372 27.5479 37.99 27.4131 37.5044C27.2917 37.4189 27.1766 37.321 27.0698 37.2106L24.3235 34.5154C24.2509 34.4436 24.1835 34.3685 24.1214 34.2907C24.0129 34.2642 23.9013 34.2502 23.7876 34.2502C23.408 34.2502 23.0508 34.3828 22.7605 34.67C22.2023 35.2223 22.2023 36.1502 22.7605 36.7025L24.9934 38.9117C25.1142 39.0312 25.2528 39.1249 25.4016 39.1927ZM28.1975 36.6883C28.1408 36.6591 28.0858 36.6261 28.0331 36.5891C27.9691 36.5442 27.9082 36.4937 27.8514 36.4374L25.1049 33.7201C24.5468 33.1678 24.5468 32.24 25.1049 31.6876C25.3952 31.4004 25.7524 31.2679 26.1321 31.2679C26.293 31.2679 26.4539 31.2956 26.6063 31.3479C26.7112 31.7963 26.9402 32.222 27.2933 32.5713L29.5262 34.7805C29.7583 35.0207 30.0304 35.2016 30.3211 35.3256C30.3472 35.7268 30.2087 36.1374 29.9056 36.4374C29.7623 36.5791 29.594 36.6846 29.4135 36.7536C29.0218 36.9033 28.5726 36.8816 28.1975 36.6883ZM31.9356 34.2964C32.0911 34.228 32.2361 34.1317 32.3618 34.0073C32.92 33.455 32.92 32.5271 32.3618 31.9748L30.129 29.7656C29.8388 29.5005 29.4815 29.3458 29.1018 29.3458C28.7223 29.3458 28.365 29.4784 28.0748 29.7656C27.5166 30.3179 27.5166 31.2458 28.0748 31.7981L30.3076 34.0073C30.3645 34.0635 30.4253 34.1141 30.4892 34.1589C30.9116 34.4548 31.4708 34.5007 31.9356 34.2964Z" fill="#6E7C89"/>
</g>
<defs>
<clipPath id="clip0_4486_16400">
<rect width="101.795" height="27.1454" fill="white" transform="translate(7.11377 15.4336)"/>
</clipPath>
</defs>
</svg>
