<svg width="117" height="55" viewBox="0 0 117 55" fill="none" xmlns="http://www.w3.org/2000/svg">
<g clip-path="url(#clip0_4486_16401)">
<mask id="mask0_4486_16401" style="mask-type:alpha" maskUnits="userSpaceOnUse" x="2" y="16" width="111" height="26">
<path d="M112.154 16.2275H2.89893V41.7844H112.154V16.2275Z" fill="#D9D9D9"/>
</mask>
<g mask="url(#mask0_4486_16401)">
<path d="M41.6166 31.4664H42.6857L42.0801 34.4558H40.4626L40.7746 32.8919H35.4438L35.1374 34.4558H33.5125L34.1162 31.4664H34.3434C34.8111 31.4528 35.2155 31.1075 35.5565 30.4305C35.9724 29.5375 36.2859 28.6003 36.4908 27.6368L37.0447 25.3379H42.85L41.6166 31.4664ZM37.3328 30.1554C37.1788 30.6382 36.9274 31.0844 36.5942 31.4664H39.8865L40.8245 26.7615H38.2394L37.9698 27.9304C37.798 28.683 37.5853 29.4258 37.3328 30.1554Z" fill="#E6F4FF"/>
<path d="M50.2702 25.9583C50.5255 26.1662 50.7282 26.4314 50.862 26.7323C50.9958 27.0332 51.0568 27.3613 51.0402 27.6902C51.0546 28.2757 50.8994 28.8528 50.5933 29.352C50.285 29.8312 49.8417 30.2083 49.3193 30.4359C48.7042 30.6983 48.0396 30.8243 47.3713 30.8052H45.6873L45.2774 32.8881H43.5195L45.0299 25.3452H48.084C49.0257 25.3452 49.7544 25.5495 50.2702 25.9583ZM48.7931 28.9846C48.9537 28.8426 49.0799 28.6659 49.1622 28.4679C49.2444 28.2698 49.2804 28.0556 49.2676 27.8416C49.2772 27.6866 49.2485 27.5316 49.1842 27.3902C49.1198 27.2489 49.0216 27.1255 48.8983 27.031C48.5889 26.8322 48.2239 26.7377 47.8569 26.7614H46.4868L45.9569 29.3835H47.4341C48.0304 29.3835 48.4792 29.2505 48.8041 28.9846H48.7931Z" fill="#E6F4FF"/>
<path d="M56.4878 31.2724H52.9794L51.9971 32.8917H50.1211L55.0087 25.3452H56.7407L58.5872 32.8917H56.8386L56.4878 31.2724ZM56.196 29.9447L55.559 27.031L53.7863 29.9447H56.196Z" fill="#E6F4FF"/>
<path d="M61.1193 25.3454H62.8458L61.8431 30.2663L66.4298 25.3454H68.0916L66.5793 32.8993H64.8529L65.8685 27.9895L61.2707 32.8993H59.6089L61.1193 25.3454ZM63.3056 24.5403C63.1492 24.4249 63.0242 24.2722 62.9419 24.0961C62.8597 23.92 62.8228 23.7261 62.8347 23.5322C62.8322 23.4271 62.8397 23.322 62.8568 23.2183H63.9647C63.9563 23.2683 63.9525 23.319 63.9536 23.3697C63.949 23.4622 63.9655 23.5545 64.002 23.6396C64.0385 23.7248 64.0939 23.8004 64.1641 23.8608C64.3389 23.9927 64.5549 24.0581 64.7735 24.0455C65.0226 24.0556 65.2679 23.9815 65.4696 23.835C65.6601 23.6842 65.7856 23.4662 65.8204 23.2257H66.9543C66.9268 23.4706 66.8502 23.7075 66.7299 23.9225C66.6094 24.1376 66.4471 24.3263 66.2525 24.4776C65.8832 24.7508 65.3619 24.8875 64.6886 24.8875C64.0779 24.8776 63.617 24.7595 63.3056 24.533V24.5403Z" fill="#E6F4FF"/>
<path d="M75.5104 29.5736C75.6931 29.8497 75.7851 30.1755 75.7749 30.5061C75.7928 30.8583 75.7168 31.2089 75.5545 31.522C75.3922 31.8351 75.1494 32.0994 74.8517 32.2879C74.2358 32.6904 73.4122 32.8917 72.381 32.8917H68.4146L69.925 25.3452H73.5738C74.3859 25.3452 75.0121 25.4941 75.4516 25.7921C75.6625 25.9303 75.8337 26.1209 75.9487 26.3452C76.0644 26.5695 76.1193 26.8197 76.1091 27.0716C76.1187 27.4954 75.989 27.9105 75.7398 28.2534C75.4868 28.5898 75.1456 28.8494 74.7539 29.003C75.0574 29.1127 75.3213 29.3116 75.5104 29.5736ZM73.6275 31.2945C73.7591 31.2064 73.8665 31.0856 73.9387 30.944C74.0102 30.8022 74.0441 30.6445 74.0371 30.4858C74.0371 29.9669 73.6678 29.7084 72.9036 29.7084H70.7894L70.4201 31.5752H72.4806C72.8825 31.5983 73.2818 31.5005 73.6275 31.2945ZM71.3932 26.6544L71.0367 28.4343H72.8186C73.1962 28.4565 73.5713 28.3603 73.8914 28.1592C74.0166 28.0694 74.1169 27.9497 74.184 27.8111C74.2511 27.6724 74.2824 27.5191 74.2754 27.3652C74.2754 26.8913 73.9061 26.6544 73.1675 26.6544H71.3932Z" fill="#E6F4FF"/>
<path d="M82.8858 29.5928C83.0807 29.871 83.1823 30.204 83.1752 30.5437C83.1778 31.0335 82.9906 31.5054 82.6526 31.8602C82.268 32.2643 81.7901 32.568 81.2604 32.7447C80.6592 32.9567 80.026 33.0623 79.3884 33.0568C78.8689 33.0566 78.3514 32.9877 77.8505 32.8518C77.3566 32.7213 76.8883 32.5098 76.4634 32.2258L77.2633 30.9739C77.5694 31.1881 77.9105 31.3474 78.2715 31.4448C78.6421 31.5473 79.0255 31.5994 79.4107 31.5999C79.9065 31.6154 80.3985 31.5042 80.8393 31.2768C81.231 31.0607 81.4284 30.769 81.4284 30.4034C81.4284 29.911 81.0547 29.6648 80.3059 29.6648H78.4396L78.6977 28.3483H80.4464C80.7729 28.364 81.0962 28.2755 81.3697 28.0953C81.4783 28.0244 81.5671 27.9273 81.6284 27.8131C81.6898 27.699 81.7211 27.5712 81.7204 27.4417C81.7236 27.3132 81.691 27.1863 81.6259 27.0757C81.5601 26.965 81.4655 26.8749 81.3511 26.8157C81.0425 26.658 80.6981 26.5835 80.3525 26.5996C80.0049 26.6044 79.6586 26.6496 79.3219 26.7344C78.943 26.828 78.5757 26.9636 78.2268 27.1388L77.9687 25.7798C78.7986 25.3879 79.704 25.1818 80.6215 25.176C81.1243 25.1706 81.6233 25.2504 82.0987 25.4124C82.5018 25.5462 82.8641 25.7807 83.1516 26.0937C83.4065 26.3779 83.5445 26.7478 83.5394 27.1296C83.5401 27.5294 83.4014 27.9168 83.1459 28.2245C82.8666 28.5642 82.498 28.8199 82.0821 28.9631C82.4041 29.0934 82.682 29.3116 82.8858 29.5928Z" fill="#6E7C89"/>
<path d="M89.6299 31.2724H86.1126L85.13 32.8917H83.2637L88.1527 25.3452H89.8791L91.7351 32.8991H89.9794L89.6299 31.2724ZM89.3405 29.9447L88.7035 27.031L86.9215 29.9447H89.3405Z" fill="#6E7C89"/>
<path d="M94.2616 25.3454H95.988L94.9836 30.2663L99.5697 25.3454H101.232L99.7212 32.8993H97.9948L99.0088 27.9896L94.4111 32.8919H92.7493L94.2616 25.3454ZM96.4422 24.533C96.2863 24.4172 96.1617 24.2644 96.08 24.0884C95.9975 23.9123 95.9611 23.7186 95.9733 23.5248C95.9707 23.4197 95.9777 23.3146 95.995 23.2109H97.1029C97.0946 23.2609 97.0907 23.3116 97.092 23.3623C97.0875 23.4548 97.1042 23.5471 97.1406 23.6323C97.177 23.7174 97.2326 23.7931 97.3022 23.8535C97.4773 23.9853 97.6932 24.0508 97.9117 24.0381C98.1609 24.0483 98.4063 23.9741 98.6082 23.8276C98.7979 23.6763 98.9232 23.4585 98.9589 23.2183H100.092C100.065 23.4632 99.9889 23.7002 99.8681 23.9152C99.748 24.1302 99.5857 24.319 99.3908 24.4702C99.0215 24.7435 98.4951 24.8801 97.8249 24.8801C97.2192 24.8752 96.7585 24.7595 96.4422 24.533Z" fill="#6E7C89"/>
<path d="M111.617 25.3452L110.109 32.8917H108.48L109.375 28.3919L106.483 32.0848H105.695L104.14 28.3291L103.234 32.8844H101.615L103.123 25.3452H104.549L106.435 30.05L110.109 25.3452H111.617Z" fill="#6E7C89"/>
<path d="M26.1544 25.6955C24.8722 22.8547 22.6259 21.4219 19.5461 21.3676C16.3577 21.3101 15.3409 21.3552 12.1508 21.3552H2.89893L7.25788 27.2928C10.9555 27.2928 14.307 27.2928 17.9566 27.2928V24.5313L22.3807 28.9538L17.9566 33.3764V30.621H13.7125C12.1679 32.7477 10.7304 34.7238 9.25572 36.7481C10.465 38.3982 11.7255 40.1167 12.9503 41.7839C13.7792 40.6491 14.4436 39.7053 15.6467 38.0582C16.2894 37.175 16.5626 36.8008 16.7333 36.5742C17.9488 36.5742 18.9066 36.5742 19.1844 36.5665C20.2747 36.5522 21.3502 36.3121 22.343 35.8614C23.3359 35.4107 24.2245 34.759 24.9529 33.9477C25.889 32.9153 26.5157 31.6404 26.7614 30.2686C27.0374 28.7182 26.8253 27.1203 26.1544 25.6955Z" fill="#E6F4FF"/>
</g>
</g>
<defs>
<clipPath id="clip0_4486_16401">
<rect width="109.256" height="25.5568" fill="white" transform="translate(2.89893 16.2275)"/>
</clipPath>
</defs>
</svg>
