<svg width="14" height="14" viewBox="0 0 14 14" fill="none" xmlns="http://www.w3.org/2000/svg">
<path d="M3.29749 8.34061L2.05937 12.674C1.97819 12.9449 2.07967 13.2428 2.3097 13.4053C2.53974 13.5746 2.85096 13.5813 3.08099 13.4188L6.76829 10.961L10.4556 13.4188C10.5699 13.4964 10.7053 13.5368 10.8434 13.5343C10.9814 13.5319 11.1154 13.4868 11.2269 13.4053C11.4569 13.236 11.5584 12.9449 11.4772 12.674L10.2391 8.34061L13.3107 5.57807C13.5137 5.39525 13.5881 5.11087 13.5002 4.86035C13.4122 4.60305 13.1822 4.42701 12.9115 4.39992L9.05509 4.09523L7.38397 0.398293C7.33057 0.279617 7.24407 0.178899 7.13485 0.108243C7.02563 0.0375867 6.89834 0 6.76829 0C6.63824 0 6.51096 0.0375867 6.40174 0.108243C6.29252 0.178899 6.20601 0.279617 6.15261 0.398293L4.48149 4.09523L0.625048 4.39992C0.354421 4.42024 0.124387 4.60305 0.0364335 4.86035C-0.0515205 5.11764 0.0229021 5.40202 0.225873 5.57807L3.29749 8.34061Z" fill="#F2D03B"/>
</svg>
