<svg width="203" height="64" viewBox="0 0 203 64" fill="none" xmlns="http://www.w3.org/2000/svg">
<path d="M0 12C0 5.37257 5.37258 0 12 0H191C197.627 0 203 5.37258 203 12V51.0488C203 57.6762 197.627 63.0488 191 63.0488H12C5.37259 63.0488 0 57.6762 0 51.0488V12Z" fill="#1E252C"/>
<path fill-rule="evenodd" clip-rule="evenodd" d="M25.0262 12.752C26.3649 12.7525 27.6741 13.1495 28.787 13.8936C29.8998 14.6376 30.7671 15.6958 31.2792 16.9326C31.791 18.1693 31.9251 19.5301 31.6639 20.8428C31.4027 22.1557 30.7579 23.362 29.8114 24.3086C28.5863 25.5337 25.7038 27.3042 25.5331 29.167C25.5081 29.4451 25.3044 29.6729 25.0262 29.6729C24.7483 29.6726 24.5461 29.4449 24.5204 29.167C24.3497 27.3042 21.4649 25.5305 20.2391 24.3047C19.2937 23.3577 18.6499 22.1514 18.3895 20.8389C18.1292 19.5264 18.264 18.1658 18.7762 16.9297C19.2885 15.6936 20.156 14.6371 21.2684 13.8936C22.3808 13.1501 23.6883 12.7527 25.0262 12.752ZM25.0311 17.2031C24.727 17.2031 24.4253 17.2625 24.1444 17.3789C23.8636 17.4952 23.6084 17.666 23.3934 17.8809C23.1784 18.0959 23.0078 18.3519 22.8915 18.6328C22.7752 18.9136 22.7157 19.2146 22.7157 19.5186C22.7157 19.8225 22.7752 20.1235 22.8915 20.4043C23.0078 20.6852 23.1784 20.9412 23.3934 21.1562C23.6084 21.3712 23.8636 21.5419 24.1444 21.6582C24.4253 21.7746 24.727 21.834 25.0311 21.834C25.645 21.8339 26.2337 21.5902 26.6678 21.1562C27.1021 20.722 27.3466 20.1327 27.3466 19.5186C27.3465 18.9045 27.1021 18.3151 26.6678 17.8809C26.2337 17.4469 25.6449 17.2032 25.0311 17.2031Z" fill="#FF4433"/>
<path d="M37.6014 25.4042V24.249L43.6117 15.3329H45.236V28.2559H43.738V17.6793H43.6478L39.3341 23.9602H46.716V25.4042H37.6014ZM49.1133 30.2412L48.3733 29.7539L49.3479 28.2559C49.1554 28.2198 48.9629 28.1115 48.7704 27.931C48.5899 27.7505 48.4996 27.5098 48.4996 27.209C48.4996 26.8962 48.6079 26.6315 48.8245 26.4149C49.0531 26.1863 49.3299 26.072 49.6548 26.072C49.8232 26.072 49.9736 26.102 50.106 26.1622C50.2504 26.2224 50.3707 26.3066 50.4669 26.4149C50.5752 26.5111 50.6595 26.6315 50.7196 26.7759C50.7798 26.9082 50.8099 27.0526 50.8099 27.209C50.8099 27.3534 50.7858 27.4978 50.7377 27.6422C50.6896 27.7746 50.6294 27.9069 50.5572 28.0393C50.485 28.1716 50.4008 28.304 50.3045 28.4363L49.1133 30.2412ZM55.9056 28.5446L54.6782 27.6963C55.0272 27.191 55.3521 26.7217 55.6529 26.2885C55.9657 25.8554 56.2545 25.4583 56.5192 25.0973C56.7839 24.7243 57.0246 24.3874 57.2412 24.0866C57.4698 23.7737 57.6804 23.497 57.8729 23.2563L57.8187 23.1842C57.7225 23.2443 57.548 23.3105 57.2953 23.3827C57.0426 23.4429 56.7418 23.4729 56.3929 23.4729C55.7431 23.4729 55.1114 23.2985 54.4977 22.9495C53.8961 22.6006 53.3968 22.1193 52.9997 21.5056C52.6147 20.8799 52.4221 20.164 52.4221 19.3578C52.4221 18.5516 52.6147 17.8237 52.9997 17.1739C53.3847 16.5242 53.9021 16.0128 54.5519 15.6398C55.2017 15.2547 55.9236 15.0622 56.7177 15.0622C57.3795 15.0622 57.9751 15.1885 58.5046 15.4412C59.046 15.6819 59.5033 16.0068 59.8763 16.4159C60.2613 16.825 60.5561 17.2882 60.7607 17.8056C60.9652 18.311 61.0675 18.8284 61.0675 19.3578C61.0675 20.1038 60.9171 20.7716 60.6163 21.3612C60.3155 21.9388 59.9545 22.5404 59.5334 23.1661C59.1724 23.7076 58.8054 24.255 58.4324 24.8085C58.0594 25.35 57.6623 25.9276 57.2412 26.5412C56.8321 27.1549 56.3869 27.8227 55.9056 28.5446ZM56.7358 22.0471C57.2652 22.0471 57.7405 21.9268 58.1617 21.6861C58.5828 21.4455 58.9137 21.1206 59.1543 20.7115C59.407 20.2903 59.5334 19.815 59.5334 19.2856C59.5334 18.7562 59.413 18.2869 59.1724 17.8778C58.9317 17.4567 58.6008 17.1258 58.1797 16.8851C57.7586 16.6445 57.2773 16.5242 56.7358 16.5242C56.2064 16.5242 55.7311 16.6445 55.3099 16.8851C54.8888 17.1137 54.5579 17.4386 54.3173 17.8598C54.0766 18.2689 53.9563 18.7442 53.9563 19.2856C53.9563 19.8271 54.0766 20.3084 54.3173 20.7295C54.5699 21.1386 54.9069 21.4635 55.328 21.7042C55.7491 21.9328 56.2184 22.0471 56.7358 22.0471Z" fill="white"/>
<path d="M102.31 22.6023L101.072 26.9357C100.99 27.2066 101.092 27.5045 101.322 27.667C101.552 27.8363 101.863 27.843 102.093 27.6805L105.78 25.2227L109.468 27.6805C109.582 27.7581 109.718 27.7985 109.856 27.796C109.994 27.7936 110.128 27.7486 110.239 27.667C110.469 27.4977 110.571 27.2066 110.489 26.9357L109.251 22.6023L112.323 19.8398C112.526 19.657 112.6 19.3726 112.512 19.1221C112.424 18.8648 112.194 18.6887 111.924 18.6616L108.067 18.3569L106.396 14.66C106.343 14.5413 106.256 14.4406 106.147 14.37C106.038 14.2993 105.911 14.2617 105.78 14.2617C105.65 14.2617 105.523 14.2993 105.414 14.37C105.305 14.4406 105.218 14.5413 105.165 14.66L103.494 18.3569L99.6373 18.6616C99.3666 18.682 99.1366 18.8648 99.0486 19.1221C98.9607 19.3794 99.0351 19.6637 99.2381 19.8398L102.31 22.6023Z" fill="#F2D03B"/>
<path d="M120.359 22.6023L119.12 26.9357C119.039 27.2066 119.141 27.5045 119.371 27.667C119.601 27.8363 119.912 27.843 120.142 27.6805L123.829 25.2227L127.517 27.6805C127.631 27.7581 127.766 27.7985 127.904 27.796C128.042 27.7936 128.176 27.7486 128.288 27.667C128.518 27.4977 128.619 27.2066 128.538 26.9357L127.3 22.6023L130.372 19.8398C130.575 19.657 130.649 19.3726 130.561 19.1221C130.473 18.8648 130.243 18.6887 129.973 18.6616L126.116 18.3569L124.445 14.66C124.392 14.5413 124.305 14.4406 124.196 14.37C124.087 14.2993 123.959 14.2617 123.829 14.2617C123.699 14.2617 123.572 14.2993 123.463 14.37C123.354 14.4406 123.267 14.5413 123.214 14.66L121.543 18.3569L117.686 18.6616C117.415 18.682 117.185 18.8648 117.097 19.1221C117.01 19.3794 117.084 19.6637 117.287 19.8398L120.359 22.6023Z" fill="#F2D03B"/>
<path d="M138.407 22.6023L137.169 26.9357C137.088 27.2066 137.19 27.5045 137.42 27.667C137.65 27.8363 137.961 27.843 138.191 27.6805L141.878 25.2227L145.565 27.6805C145.68 27.7581 145.815 27.7985 145.953 27.796C146.091 27.7936 146.225 27.7486 146.337 27.667C146.567 27.4977 146.668 27.2066 146.587 26.9357L145.349 22.6023L148.421 19.8398C148.624 19.657 148.698 19.3726 148.61 19.1221C148.522 18.8648 148.292 18.6887 148.021 18.6616L144.165 18.3569L142.494 14.66C142.44 14.5413 142.354 14.4406 142.245 14.37C142.135 14.2993 142.008 14.2617 141.878 14.2617C141.748 14.2617 141.621 14.2993 141.512 14.37C141.402 14.4406 141.316 14.5413 141.262 14.66L139.591 18.3569L135.735 18.6616C135.464 18.682 135.234 18.8648 135.146 19.1221C135.058 19.3794 135.133 19.6637 135.336 19.8398L138.407 22.6023Z" fill="#F2D03B"/>
<path d="M156.456 22.6023L155.218 26.9357C155.137 27.2066 155.238 27.5045 155.468 27.667C155.698 27.8363 156.009 27.843 156.239 27.6805L159.927 25.2227L163.614 27.6805C163.728 27.7581 163.864 27.7985 164.002 27.796C164.14 27.7936 164.274 27.7486 164.385 27.667C164.615 27.4977 164.717 27.2066 164.636 26.9357L163.398 22.6023L166.469 19.8398C166.672 19.657 166.747 19.3726 166.659 19.1221C166.571 18.8648 166.341 18.6887 166.07 18.6616L162.214 18.3569L160.542 14.66C160.489 14.5413 160.403 14.4406 160.293 14.37C160.184 14.2993 160.057 14.2617 159.927 14.2617C159.797 14.2617 159.669 14.2993 159.56 14.37C159.451 14.4406 159.364 14.5413 159.311 14.66L157.64 18.3569L153.783 18.6616C153.513 18.682 153.283 18.8648 153.195 19.1221C153.107 19.3794 153.181 19.6637 153.384 19.8398L156.456 22.6023Z" fill="#F2D03B"/>
<path d="M174.505 22.6023L173.267 26.9357C173.185 27.2066 173.287 27.5045 173.517 27.667C173.747 27.8363 174.058 27.843 174.288 27.6805L177.976 25.2227L181.663 27.6805C181.777 27.7581 181.913 27.7985 182.051 27.796C182.189 27.7936 182.323 27.7486 182.434 27.667C182.664 27.4977 182.766 27.2066 182.684 26.9357L181.446 22.6023L184.518 19.8398C184.721 19.657 184.795 19.3726 184.707 19.1221C184.619 18.8648 184.389 18.6887 184.119 18.6616L180.262 18.3569L178.591 14.66C178.538 14.5413 178.451 14.4406 178.342 14.37C178.233 14.2993 178.106 14.2617 177.976 14.2617C177.846 14.2617 177.718 14.2993 177.609 14.37C177.5 14.4406 177.413 14.5413 177.36 14.66L175.689 18.3569L171.832 18.6616C171.562 18.682 171.332 18.8648 171.244 19.1221C171.156 19.3794 171.23 19.6637 171.433 19.8398L174.505 22.6023Z" fill="#F2D03B"/>
<path d="M16.948 51.0488V42.4568H19.84C20.32 42.4568 20.764 42.5648 21.172 42.7808C21.58 42.9968 21.904 43.2968 22.144 43.6808C22.392 44.0568 22.516 44.4968 22.516 45.0008C22.516 45.4968 22.392 45.9368 22.144 46.3208C21.904 46.7048 21.58 47.0048 21.172 47.2208C20.764 47.4368 20.32 47.5448 19.84 47.5448H17.488V46.5728H19.864C20.2 46.5728 20.488 46.4968 20.728 46.3448C20.968 46.1848 21.152 45.9848 21.28 45.7448C21.416 45.5048 21.484 45.2568 21.484 45.0008C21.484 44.7448 21.416 44.4968 21.28 44.2568C21.152 44.0168 20.968 43.8208 20.728 43.6688C20.488 43.5088 20.2 43.4288 19.864 43.4288H17.968V51.0488H16.948ZM26.0539 51.2408C25.4619 51.2408 24.9339 51.1008 24.4699 50.8208C24.0139 50.5408 23.6539 50.1568 23.3899 49.6688C23.1339 49.1808 23.0059 48.6248 23.0059 48.0008C23.0059 47.4168 23.1259 46.8768 23.3659 46.3808C23.6139 45.8848 23.9579 45.4888 24.3979 45.1928C24.8459 44.8888 25.3699 44.7368 25.9699 44.7368C26.5779 44.7368 27.0979 44.8728 27.5299 45.1448C27.9699 45.4088 28.3059 45.7768 28.5379 46.2488C28.7779 46.7208 28.8979 47.2608 28.8979 47.8688C28.8979 47.9248 28.8939 47.9808 28.8859 48.0368C28.8859 48.0928 28.8819 48.1408 28.8739 48.1808H23.6059V47.3408H27.8179C27.8099 47.1728 27.7699 46.9928 27.6979 46.8008C27.6339 46.6008 27.5259 46.4168 27.3739 46.2488C27.2299 46.0728 27.0419 45.9328 26.8099 45.8288C26.5859 45.7168 26.3059 45.6608 25.9699 45.6608C25.5699 45.6608 25.2219 45.7648 24.9259 45.9728C24.6379 46.1728 24.4139 46.4488 24.2539 46.8008C24.1019 47.1528 24.0259 47.5528 24.0259 48.0008C24.0259 48.5208 24.1259 48.9528 24.3259 49.2968C24.5259 49.6408 24.7819 49.8968 25.0939 50.0648C25.4139 50.2328 25.7459 50.3168 26.0899 50.3168C26.5379 50.3168 26.9059 50.2128 27.1939 50.0048C27.4899 49.7888 27.7259 49.5248 27.9019 49.2128L28.7659 49.6328C28.5259 50.0968 28.1819 50.4808 27.7339 50.7848C27.2859 51.0888 26.7259 51.2408 26.0539 51.2408ZM30.0565 51.0488V44.9288H31.0765V48.4328L31.0285 49.5848H31.0765L34.4365 44.9288H35.4565V51.0488H34.4365V47.5448L34.4845 46.3928H34.4365L31.0765 51.0488H30.0565ZM32.7685 43.9928C32.4325 43.9928 32.1285 43.9288 31.8565 43.8008C31.5925 43.6728 31.3805 43.4968 31.2205 43.2728C31.0685 43.0408 30.9925 42.7848 30.9925 42.5048H31.8205C31.8205 42.7048 31.9085 42.8768 32.0845 43.0208C32.2685 43.1568 32.4965 43.2248 32.7685 43.2248C33.0325 43.2248 33.2525 43.1568 33.4285 43.0208C33.6045 42.8768 33.6925 42.7048 33.6925 42.5048H34.5085C34.5085 42.7848 34.4325 43.0408 34.2805 43.2728C34.1285 43.4968 33.9205 43.6728 33.6565 43.8008C33.4005 43.9288 33.1045 43.9928 32.7685 43.9928ZM38.5551 51.0488V45.3728H39.5631V51.0488H38.5551ZM36.5031 45.8528V44.9288H41.6271V45.8528H36.5031ZM42.6659 51.0488V44.9288H43.6859V48.4328L43.6379 49.5848H43.6859L47.0459 44.9288H48.0659V51.0488H47.0459V47.5448L47.0939 46.3928H47.0459L43.6859 51.0488H42.6659ZM49.5565 51.0488V44.9288H50.5765V51.0488H49.5565ZM50.0965 48.4208V47.4968H54.2965V48.4208H50.0965ZM53.8165 51.0488V44.9288H54.8365V51.0488H53.8165ZM56.3299 51.0488V44.9288H60.1699V45.8528H57.3499V51.0488H56.3299ZM66.8257 51.2408C66.2097 51.2408 65.6657 51.0968 65.1937 50.8088C64.7217 50.5208 64.3497 50.1328 64.0777 49.6448C63.8137 49.1488 63.6817 48.5968 63.6817 47.9888C63.6817 47.3808 63.8137 46.8328 64.0777 46.3448C64.3497 45.8488 64.7217 45.4568 65.1937 45.1688C65.6657 44.8808 66.2097 44.7368 66.8257 44.7368C67.4417 44.7368 67.9857 44.8848 68.4577 45.1808C68.9297 45.4688 69.2977 45.8608 69.5617 46.3568C69.8337 46.8448 69.9697 47.3888 69.9697 47.9888C69.9697 48.5968 69.8337 49.1488 69.5617 49.6448C69.2977 50.1328 68.9297 50.5208 68.4577 50.8088C67.9857 51.0968 67.4417 51.2408 66.8257 51.2408ZM66.8257 50.3168C67.1937 50.3168 67.5377 50.2248 67.8577 50.0408C68.1857 49.8568 68.4497 49.5928 68.6497 49.2488C68.8497 48.8968 68.9497 48.4768 68.9497 47.9888C68.9497 47.5008 68.8497 47.0848 68.6497 46.7408C68.4497 46.3888 68.1857 46.1208 67.8577 45.9368C67.5377 45.7528 67.1937 45.6608 66.8257 45.6608C66.4577 45.6608 66.1097 45.7528 65.7817 45.9368C65.4537 46.1208 65.1897 46.3888 64.9897 46.7408C64.7897 47.0848 64.6897 47.5008 64.6897 47.9888C64.6897 48.4768 64.7897 48.8968 64.9897 49.2488C65.1897 49.5928 65.4537 49.8568 65.7817 50.0408C66.1097 50.2248 66.4577 50.3168 66.8257 50.3168ZM71.1307 53.6408V44.9288H72.1027V45.8408H72.1507C72.2627 45.6488 72.4187 45.4688 72.6187 45.3008C72.8267 45.1328 73.0667 44.9968 73.3387 44.8928C73.6107 44.7888 73.9107 44.7368 74.2387 44.7368C74.7987 44.7368 75.2987 44.8768 75.7387 45.1568C76.1787 45.4368 76.5267 45.8208 76.7827 46.3088C77.0387 46.7968 77.1667 47.3568 77.1667 47.9888C77.1667 48.6208 77.0387 49.1808 76.7827 49.6688C76.5267 50.1568 76.1787 50.5408 75.7387 50.8208C75.2987 51.1008 74.7987 51.2408 74.2387 51.2408C73.7507 51.2408 73.3227 51.1288 72.9547 50.9048C72.5867 50.6808 72.3187 50.4288 72.1507 50.1488H72.1027L72.1507 50.9888V53.6408H71.1307ZM74.1307 50.3168C74.4827 50.3168 74.8107 50.2248 75.1147 50.0408C75.4267 49.8488 75.6747 49.5768 75.8587 49.2248C76.0507 48.8728 76.1467 48.4608 76.1467 47.9888C76.1467 47.5088 76.0507 47.0968 75.8587 46.7528C75.6747 46.4008 75.4267 46.1328 75.1147 45.9488C74.8107 45.7568 74.4827 45.6608 74.1307 45.6608C73.7787 45.6608 73.4467 45.7568 73.1347 45.9488C72.8307 46.1328 72.5827 46.4008 72.3907 46.7528C72.1987 47.0968 72.1027 47.5088 72.1027 47.9888C72.1027 48.4688 72.1987 48.8848 72.3907 49.2368C72.5827 49.5808 72.8307 49.8488 73.1347 50.0408C73.4467 50.2248 73.7787 50.3168 74.1307 50.3168ZM78.326 51.0488V44.9288H82.166V45.8528H79.346V51.0488H78.326ZM85.017 51.2408C84.561 51.2408 84.161 51.1528 83.817 50.9768C83.473 50.8008 83.201 50.5608 83.001 50.2568C82.809 49.9448 82.713 49.5928 82.713 49.2008C82.713 48.7528 82.829 48.3768 83.061 48.0728C83.293 47.7608 83.605 47.5288 83.997 47.3768C84.389 47.2168 84.821 47.1368 85.293 47.1368C85.565 47.1368 85.817 47.1608 86.049 47.2088C86.281 47.2488 86.481 47.3008 86.649 47.3648C86.825 47.4208 86.957 47.4768 87.045 47.5328V47.1608C87.045 46.6968 86.881 46.3288 86.553 46.0568C86.225 45.7848 85.825 45.6488 85.353 45.6488C85.017 45.6488 84.701 45.7248 84.405 45.8768C84.117 46.0208 83.889 46.2248 83.721 46.4888L82.953 45.9128C83.113 45.6728 83.313 45.4648 83.553 45.2888C83.793 45.1128 84.065 44.9768 84.369 44.8808C84.681 44.7848 85.009 44.7368 85.353 44.7368C86.185 44.7368 86.837 44.9568 87.309 45.3968C87.781 45.8368 88.017 46.4288 88.017 47.1728V51.0488H87.045V50.1728H86.997C86.893 50.3488 86.745 50.5208 86.553 50.6888C86.361 50.8488 86.133 50.9808 85.869 51.0848C85.613 51.1888 85.329 51.2408 85.017 51.2408ZM85.113 50.3408C85.465 50.3408 85.785 50.2528 86.073 50.0768C86.369 49.9008 86.605 49.6648 86.781 49.3688C86.957 49.0728 87.045 48.7488 87.045 48.3968C86.861 48.2688 86.629 48.1648 86.349 48.0848C86.077 48.0048 85.777 47.9648 85.449 47.9648C84.865 47.9648 84.437 48.0848 84.165 48.3248C83.893 48.5648 83.757 48.8608 83.757 49.2128C83.757 49.5488 83.885 49.8208 84.141 50.0288C84.397 50.2368 84.721 50.3408 85.113 50.3408ZM89.412 51.0488V44.9288H90.432V51.0488H89.412ZM89.952 48.4208V47.4968H94.152V48.4208H89.952ZM93.672 51.0488V44.9288H94.692V51.0488H93.672ZM96.1854 51.0488V44.9288H97.2054V48.4328L97.1574 49.5848H97.2054L100.565 44.9288H101.585V51.0488H100.565V47.5448L100.613 46.3928H100.565L97.2054 51.0488H96.1854ZM105.308 51.2408C105.004 51.2408 104.692 51.2008 104.372 51.1208C104.06 51.0488 103.756 50.9288 103.46 50.7608C103.172 50.5928 102.916 50.3688 102.692 50.0888L103.484 49.4888C103.748 49.7928 104.036 50.0128 104.348 50.1488C104.66 50.2768 104.98 50.3408 105.308 50.3408C105.764 50.3408 106.108 50.2448 106.34 50.0528C106.572 49.8528 106.688 49.6128 106.688 49.3328C106.688 49.0688 106.572 48.8568 106.34 48.6968C106.116 48.5288 105.816 48.4448 105.44 48.4448H104.444V47.5208H105.44C105.76 47.5208 106.016 47.4408 106.208 47.2808C106.4 47.1208 106.496 46.9088 106.496 46.6448C106.496 46.3408 106.372 46.1008 106.124 45.9248C105.884 45.7408 105.58 45.6488 105.212 45.6488C104.884 45.6488 104.568 45.7208 104.264 45.8648C103.96 46.0008 103.712 46.1848 103.52 46.4168L102.764 45.8408C102.948 45.6168 103.168 45.4248 103.424 45.2648C103.68 45.0968 103.96 44.9688 104.264 44.8808C104.576 44.7848 104.9 44.7368 105.236 44.7368C105.676 44.7368 106.064 44.8128 106.4 44.9648C106.744 45.1168 107.016 45.3248 107.216 45.5888C107.416 45.8528 107.516 46.1608 107.516 46.5128C107.516 46.8328 107.436 47.1168 107.276 47.3648C107.116 47.6128 106.904 47.7928 106.64 47.9048V47.9528C106.968 48.0728 107.228 48.2688 107.42 48.5408C107.62 48.8048 107.72 49.1128 107.72 49.4648C107.72 49.8088 107.62 50.1168 107.42 50.3888C107.22 50.6528 106.94 50.8608 106.58 51.0128C106.22 51.1648 105.796 51.2408 105.308 51.2408ZM110.869 51.2408C110.413 51.2408 110.013 51.1528 109.669 50.9768C109.325 50.8008 109.053 50.5608 108.853 50.2568C108.661 49.9448 108.565 49.5928 108.565 49.2008C108.565 48.7528 108.681 48.3768 108.913 48.0728C109.145 47.7608 109.457 47.5288 109.849 47.3768C110.241 47.2168 110.673 47.1368 111.145 47.1368C111.417 47.1368 111.669 47.1608 111.901 47.2088C112.133 47.2488 112.333 47.3008 112.501 47.3648C112.677 47.4208 112.809 47.4768 112.897 47.5328V47.1608C112.897 46.6968 112.733 46.3288 112.405 46.0568C112.077 45.7848 111.677 45.6488 111.205 45.6488C110.869 45.6488 110.553 45.7248 110.257 45.8768C109.969 46.0208 109.741 46.2248 109.573 46.4888L108.805 45.9128C108.965 45.6728 109.165 45.4648 109.405 45.2888C109.645 45.1128 109.917 44.9768 110.221 44.8808C110.533 44.7848 110.861 44.7368 111.205 44.7368C112.037 44.7368 112.689 44.9568 113.161 45.3968C113.633 45.8368 113.869 46.4288 113.869 47.1728V51.0488H112.897V50.1728H112.849C112.745 50.3488 112.597 50.5208 112.405 50.6888C112.213 50.8488 111.985 50.9808 111.721 51.0848C111.465 51.1888 111.181 51.2408 110.869 51.2408ZM110.965 50.3408C111.317 50.3408 111.637 50.2528 111.925 50.0768C112.221 49.9008 112.457 49.6648 112.633 49.3688C112.809 49.0728 112.897 48.7488 112.897 48.3968C112.713 48.2688 112.481 48.1648 112.201 48.0848C111.929 48.0048 111.629 47.9648 111.301 47.9648C110.717 47.9648 110.289 48.0848 110.017 48.3248C109.745 48.5648 109.609 48.8608 109.609 49.2128C109.609 49.5488 109.737 49.8208 109.993 50.0288C110.249 50.2368 110.573 50.3408 110.965 50.3408ZM120.244 52.8728V51.0488H115.264V44.9288H116.284V50.1248H119.284V44.9288H120.304V50.1248H121.216V52.8728H120.244ZM122.4 51.0488V44.9288H123.42V48.4328L123.372 49.5848H123.42L126.78 44.9288H127.8V51.0488H126.78V47.5448L126.828 46.3928H126.78L123.42 51.0488H122.4ZM129.291 51.0488V44.9288H130.311V48.4328L130.263 49.5848H130.311L133.671 44.9288H134.691V51.0488H133.671V47.5448L133.719 46.3928H133.671L130.311 51.0488H129.291ZM138.971 51.0488V44.9288H141.791C142.135 44.9288 142.443 45.0008 142.715 45.1448C142.995 45.2808 143.215 45.4728 143.375 45.7208C143.535 45.9608 143.615 46.2328 143.615 46.5368C143.615 46.8488 143.543 47.1248 143.399 47.3648C143.255 47.5968 143.071 47.7688 142.847 47.8808V47.9288C143.143 48.0408 143.379 48.2128 143.555 48.4448C143.739 48.6768 143.831 48.9528 143.831 49.2728C143.831 49.6248 143.743 49.9368 143.567 50.2088C143.399 50.4728 143.171 50.6808 142.883 50.8328C142.603 50.9768 142.295 51.0488 141.959 51.0488H138.971ZM139.991 45.8528V50.1248H141.875C142.131 50.1248 142.347 50.0408 142.523 49.8728C142.707 49.7048 142.799 49.4888 142.799 49.2248C142.799 48.9688 142.707 48.7568 142.523 48.5888C142.347 48.4208 142.131 48.3368 141.875 48.3368H139.511V47.5088H141.743C141.991 47.5088 142.195 47.4328 142.355 47.2808C142.523 47.1208 142.607 46.9208 142.607 46.6808C142.607 46.4408 142.523 46.2448 142.355 46.0928C142.187 45.9328 141.979 45.8528 141.731 45.8528H139.991ZM150.471 46.5968H152.655V47.5448H150.699C150.195 47.5448 149.755 47.4728 149.379 47.3288C149.011 47.1768 148.703 46.9808 148.455 46.7408C148.215 46.4928 148.035 46.2168 147.915 45.9128C147.795 45.6008 147.735 45.2888 147.735 44.9768C147.735 44.4888 147.855 44.0568 148.095 43.6808C148.343 43.2968 148.671 42.9968 149.079 42.7808C149.487 42.5648 149.927 42.4568 150.399 42.4568H153.183V51.0488H152.175V43.4288H150.387C150.059 43.4288 149.771 43.5048 149.523 43.6568C149.283 43.8008 149.095 43.9888 148.959 44.2208C148.831 44.4528 148.767 44.7048 148.767 44.9768C148.767 45.2808 148.847 45.5568 149.007 45.8048C149.167 46.0448 149.375 46.2368 149.631 46.3808C149.895 46.5248 150.175 46.5968 150.471 46.5968ZM147.399 51.0488V51.0008L150.015 47.1968L151.131 47.2568L148.599 51.0488H147.399ZM154.873 51.0488V44.9288H155.893V51.0488H154.873ZM155.413 48.4208V47.4968H159.613V48.4208H155.413ZM159.133 51.0488V44.9288H160.153V51.0488H159.133ZM161.238 52.8728V50.1248H161.874C162.018 49.9888 162.15 49.7768 162.27 49.4888C162.39 49.2008 162.482 48.8648 162.546 48.4808C162.618 48.0968 162.654 47.7008 162.654 47.2928V44.9288H166.938V50.1248H167.85V52.8728H166.878V51.0488H162.21V52.8728H161.238ZM163.014 50.1248H165.918V45.8528H163.614V47.3768C163.614 47.8328 163.594 48.2248 163.554 48.5528C163.514 48.8728 163.45 49.1488 163.362 49.3808C163.274 49.6128 163.158 49.8288 163.014 50.0288V50.1248ZM171.589 51.2408C170.997 51.2408 170.469 51.1008 170.005 50.8208C169.549 50.5408 169.189 50.1568 168.925 49.6688C168.669 49.1808 168.541 48.6248 168.541 48.0008C168.541 47.4168 168.661 46.8768 168.901 46.3808C169.149 45.8848 169.493 45.4888 169.933 45.1928C170.381 44.8888 170.905 44.7368 171.505 44.7368C172.113 44.7368 172.633 44.8728 173.065 45.1448C173.505 45.4088 173.841 45.7768 174.073 46.2488C174.313 46.7208 174.433 47.2608 174.433 47.8688C174.433 47.9248 174.429 47.9808 174.421 48.0368C174.421 48.0928 174.417 48.1408 174.409 48.1808H169.141V47.3408H173.353C173.345 47.1728 173.305 46.9928 173.233 46.8008C173.169 46.6008 173.061 46.4168 172.909 46.2488C172.765 46.0728 172.577 45.9328 172.345 45.8288C172.121 45.7168 171.841 45.6608 171.505 45.6608C171.105 45.6608 170.757 45.7648 170.461 45.9728C170.173 46.1728 169.949 46.4488 169.789 46.8008C169.637 47.1528 169.561 47.5528 169.561 48.0008C169.561 48.5208 169.661 48.9528 169.861 49.2968C170.061 49.6408 170.317 49.8968 170.629 50.0648C170.949 50.2328 171.281 50.3168 171.625 50.3168C172.073 50.3168 172.441 50.2128 172.729 50.0048C173.025 49.7888 173.261 49.5248 173.437 49.2128L174.301 49.6328C174.061 50.0968 173.717 50.4808 173.269 50.7848C172.821 51.0888 172.261 51.2408 171.589 51.2408ZM175.592 51.0488V44.9288H176.612V47.7008H176.66L179.384 44.9288H180.596V44.9768L177.776 47.8088L180.656 51.0008V51.0488H179.396L176.66 47.9648H176.612V51.0488H175.592ZM183.977 51.2408C183.377 51.2408 182.841 51.1008 182.369 50.8208C181.905 50.5328 181.541 50.1448 181.277 49.6568C181.013 49.1608 180.881 48.6048 180.881 47.9888C180.881 47.3648 181.013 46.8088 181.277 46.3208C181.541 45.8328 181.905 45.4488 182.369 45.1688C182.841 44.8808 183.377 44.7368 183.977 44.7368C184.665 44.7368 185.229 44.8968 185.669 45.2168C186.117 45.5288 186.433 45.9328 186.617 46.4288L185.693 46.8128C185.541 46.4368 185.313 46.1528 185.009 45.9608C184.713 45.7608 184.353 45.6608 183.929 45.6608C183.569 45.6608 183.233 45.7568 182.921 45.9488C182.617 46.1408 182.369 46.4128 182.177 46.7648C181.985 47.1088 181.889 47.5168 181.889 47.9888C181.889 48.4528 181.985 48.8608 182.177 49.2128C182.369 49.5648 182.617 49.8368 182.921 50.0288C183.233 50.2208 183.569 50.3168 183.929 50.3168C184.361 50.3168 184.733 50.2168 185.045 50.0168C185.357 49.8168 185.589 49.5328 185.741 49.1648L186.653 49.5488C186.453 50.0208 186.129 50.4208 185.681 50.7488C185.233 51.0768 184.665 51.2408 183.977 51.2408Z" fill="#A9B6C3"/>
</svg>
